/* XPM */
static char *_1ab5200403b4093c8ab92468495f5e9U38aCF6mItey1GOF[] = {
/* columns rows colors chars-per-pixel */
"64 64 108 2 ",
"   c #172600",
".  c #1B2500",
"X  c #172F00",
"o  c #1B2D00",
"O  c #153500",
"+  c #1B3500",
"@  c #153C00",
"#  c #1B3B00",
"$  c #203400",
"%  c #203B00",
"&  c #170F24",
"*  c #142D28",
"=  c #1B2B28",
"-  c #163528",
";  c #1B3428",
":  c #153B28",
">  c #1B3B28",
",  c #1C2B35",
"<  c #203428",
"1  c #213C28",
"2  c #164200",
"3  c #1B4200",
"4  c #164900",
"5  c #194B00",
"6  c #165600",
"7  c #1B5600",
"8  c #165D00",
"9  c #1B5C00",
"0  c #214200",
"q  c #205700",
"w  c #215C00",
"e  c #234B1B",
"r  c #156300",
"t  c #1B6400",
"y  c #166A00",
"u  c #1B6A00",
"i  c #1A7100",
"p  c #216300",
"a  c #216B00",
"s  c #174128",
"d  c #1B4228",
"f  c #1F4828",
"g  c #204828",
"h  c #1A7428",
"j  c #625613",
"k  c #2A1B41",
"l  c #3A2F5A",
"z  c #154D50",
"x  c #1B4F50",
"c  c #145650",
"v  c #1A5550",
"b  c #155D50",
"n  c #1B5D50",
"m  c #2A4150",
"M  c #205D50",
"N  c #166450",
"B  c #1B6450",
"V  c #156A50",
"C  c #1B6A50",
"Z  c #167650",
"A  c #1B7350",
"S  c #167E50",
"D  c #1A7E50",
"F  c #216450",
"G  c #206C50",
"H  c #3C5C71",
"J  c #158528",
"K  c #1B8528",
"L  c #168B28",
"P  c #1B8C28",
"I  c #159228",
"U  c #1B9228",
"Y  c #159B28",
"T  c #1B9928",
"R  c #208428",
"E  c #218A28",
"W  c #219028",
"Q  c #158550",
"!  c #1B8550",
"~  c #1E8550",
"^  c #138A50",
"/  c #168950",
"(  c #168D50",
")  c #1A8850",
"_  c #1E8B50",
"`  c #1B8D50",
"'  c #1C8C50",
"]  c #169050",
"[  c #179450",
"{  c #199250",
"}  c #1C9250",
"|  c #199450",
" . c #159950",
".. c #199850",
"X. c #1D9950",
"o. c #208550",
"O. c #218B50",
"+. c #218C50",
"@. c #248E50",
"#. c #209050",
"$. c #209450",
"%. c #209850",
"&. c #5EBE4B",
"*. c #B5A75A",
"=. c #6A45A5",
"-. c #5E978E",
";. c #FAFFA5",
":. c #FDFFD6",
/* pixels */
"7 = Z A   x Z h . v A 5   A A 5 * A A o z A K   v ! 6 + ! S 9 ; ) ) + V ) P 3 B ` t # } } u - +.` $ F ' P 3 B ' r 3 | / i : ' | ",
"r 2 ..' t - ^ ' # B ` J 2 B _ 8 # ` / w - ' ( # V o.K @ B ' t # ` ] r ; Q ^ # C } K @ B | 7 @ ` ( t s { ' + N ) J + C ' t 3 _ % ",
"] u d ~ ) + B ) U # n ( 9 2 ` ] 8 > ' P # B #.r # D ) y * ..} # B ( P # v ) r # ! { y ; { ) # V D P + B ( t # { ` y - Q { # ` B ",
"B | y > _ ` 3 n ~ P + G ] t @ ) X.r - { / O C _ P # v } 9 3 O.` t - ) _ % B ) U # V ` t # ~ ) r ; / ] 4 A ) K @ V ~ r # _ C y ) ",
"3 ' ` ) X b ) U # C X.8 3 $.[ t f ) ) # =.` P + A ) r 3 ) _ q > ..@.+ b ' U # C ' 8 % ` ' t : =.} 3 B o.J # B } 9 # / ] _ _ : I ",
"P 3 / ) ( | @ B ) L 3 N ^ t 3 ~ ` t - & =.=.C ) P @ B O.9 3 ( { u : ) _ # B S L 3 V ' 8 3 { =.=.& ) ` O V D P # C _ t t t K ^ 4 ",
"' t $ s - # n ! T @ C ' r # ^ ..7 : _ & l =.=.K 2 B { 9 @ { { t ; Q } @ n ) P O C _ 9 # ` =.=.l & / 0 C ) P + B ] t # 1 > 2 ` C ",
"B ` 8 t r _ ' { + C ~ P # n / 8 0 _ & l l l =.=.V ~ W + n ( 8 @ Q o.t ; ] ` + B ` J # B =.=.l l l & > _ ~ # C ) L 3 } ' _ F # ` ",
"@ B ] | ` ` - | 2 V / I # v { t # / & l l l =.=.=.' J # n | r 3 ` Q u > ~ / 3 V _ I + =.=.=.l l l & - #.` + V o.2 { ) ) ` ( V t ",
"` # N / _ : u _ t # ( ] y ; `  .3 b & l l l l =.=.=.{ t - | ~ 2 B ( P @ n Q t # ) { =.=.=.l l l l & # C ~ 9 2 P n ' t + @ 8 ) # ",
"+.L # # # 9 } : O.u > O.Q 3 C ~ U & k l l l l l =.=.=.( # B ) U @ B / t # ^ _ r > =.=.=.l l l l l k & @ _ ) ) # ( w s F V # L { ",
"- Q K t t / ) t B ( L # C / p + ) & k l l l l l =.=.=.=.=.=.=.=.=.=.=.=.=.=.=.=.=.=.=.=.l l l l l k & Q # u ) B 9 = ..~ ~ ! # ( ",
"t B D / ' _ % ! # #.O./ K + C ` t & k l l l l l l =.=.=.=.=.=.=.=.=.=.=.=.=.=.=.=.=.=.l l l l l l k & ; C = t | + { ` P P { V r ",
"~ # b F n @ u ) I @ B B > ) } # B & k l l l l l l =.=.l l l l l l l l l l l l l l =.=.l l l l l l k & ) D | 1 r ( ` 3 @ @ u Q - ",
"Q / 3 2 # 8 ] @ ~ t @ o t Q r : ~ & k l l l k l =.l l l l l l l l l l l l l l l l l l =.l l l l l k & ` L ` o.O #.# V { v - 8 { ",
"3 ~ ` U K _ C 8 V ) _ +.{ ] % V / & k k l k =.l l l l l l l l l l l l l l l l l l l l l l k l l l k & 3 # @ | ` y B ) Q ] ] # ) ",
"t > _ _ ) B 3 } @ B ~ _ ) + ^ > ) & k k k =.l l l l l l l l l l l l l l l l l l l l l l l =.k l k k & b N C # ) > ! L u t ' { @ ",
"` t - C V # K B ( 2 > > + 8 / p B & k k k =.l l l l l l l l l l l l l l l l l l l l l l l l =.k k k & ! / ) c 8 ' L @ - # # ( C ",
"B / t % 2 U { # { L 8 u t { d ` + B & k =.l l l l l l l l =.=.=.=.=.=.=.=.=.=.l l l l l l l =.k k & ) P r W ) ; _ @ C | ~ C r { ",
"3 | ` ` ` _ B P ; ` ) ' ` v w ( P 3 & & l l l l l l l =.=.*.*.*.*.*.*.*.*.*.*.=.=.l l l l l l =.& & u # @ @ K ` # v } ` ( ^ - K ",
"U 2 | { { V # ~ t B { { n # ` + Q _ & l l l l l l =.=.*.*.*.*.*.*.*.*.*.*.*.*.*.*.=.=.l l l l l l & > F O.B # ' C ] t # t E / # ",
"` 6 @ - > # ~ b ' + # # # L / t n & l l l l l l =.*.*.*.*.*.*.*.*.*.*.*.*.*.*.*.*.*.*.=.l l l l l l & } / X.B # ` 8 3 B : O ~ n ",
"v _ t y t ..) 2 ' / r 9 Y ) # ) # & l l l l l =.*.*.*.*.*.;.j j ;.;.;.;.j j *.*.*.*.*.*.=.l l l l l & 9 9 w o.B J 3 | ) } B # _ ",
"2 A ' } _ ` > ' @ / ` _ _ B 9 B & l l l l l l =.*.*.*.;.;.;.;.;.;.;.;.;.;.;.;.;.*.*.*.*.=.l l l l l l & : # 6 | # ] ] L } o.C t ",
"D # n ` _ > u ( t d n B B @ | & l l l l l l l =.*.*.;.;.;.;.;.;.;.;.;.;.;.;.;.;.;.;.*.*.=.l l l l l l l & ` # I C  .u # 3 7 / 3 ",
"' K 5 # # u ^ > ' r # @ 3 ) & l l l l l l l *.*.;.;.j j &.e :.;.;.;.;.;.;.:.e &.j j ;.;.*.& l l l l l l l & ~ # { u : B B @ P ` ",
"- ! P 8 t } ' p C | K K ] & k k l l l l l & *.;.;.:.:.&.&.e &.:.;.;.;.;.:.&.e &.&.:.:.;.;.*.& l l l l l k k & N 6 > Q ( #.| 2 | ",
"t F _ ) } ! # / + ] +.~ _ > & & k k l l l & *.;.;.;.;.:.&.e &.&.;.;.;.;.&.&.e &.:.;.;.;.;.*.& l l l k k & & t ] # ' | r I ' n t ",
"~ # C B C + 9 ! I # B B > y Q # & & k k k k & *.;.;.;.;.;.;.;.;.;.:.:.;.;.;.;.;.;.;.;.;.*.& k k k k & & / ' ; 9 ` ) # # # y ` ; ",
"_ ) + # # t ) # ) u + 2 t / n / 3 B & & k k k & *.;.;.;.;.;.;.;.;.j j ;.;.;.;.;.;.;.;.*.& k k k & & ) ) P ` ' 2 | # V / C > 8 { ",
"3 ~ ) K U ) V 5 v Q | _ / ) + ) t # @ # & & & & & *.;.;.;.;.;.;.;.;.;.;.;.;.;.;.;.;.*.& & & & & % ` 9 # # 3 ) ` t B ! } ~ { + ] ",
"9 ; ` Q / b # ) # B ^ ( ~ 3 ) > ( P 8 P ` N t n ) & & & ;.;.;.;.;.;.;.;.;.;.;.;.& & & + > < + U n K 3 B C C O | ; ) K t r ^ | 3 ",
"| 8 ; n F # L B ' + ; < @ t ` t n ! .._ ` # ' 3 B ( Q & & & & & & & & & & & & & & ] 3 F ] _ B # _ % Q _ ~ ~ C 8 | I O - @ 2 ) C ",
"B ) r 3 @ R ) + ( L r t 9 } - _ @ V B c @ P V ' # 3 & k k , -.H m , , m H -., k k & ~ ` ' [ ~ C t ;.:.I t L ~ > / # C ) ` n t o.",
"3 ) _ ) #.Q B P : ' { ^ [ N t ' P o # # 9 +.+ ^ ) & k k , -.-.H , *.*., H -.-., k k & 8 + O t ) ;.;.;.:.# # 8 ' # V ! ) { Q f U ",
"P # ) { #.n # _ r N ) ) B + ] # ^ +.P ` ) F I : & k k k , -.H m , *.*., m H -., k k k & B B # r ) ;.;.:.' b + ` C ] 7 + t J ) + ",
"/ t + - - # O.F / 0 # # @ K ' r N ) D ] B + ~ y & k k k , m m , *.*.*.*., m m , k k k & { { / # _ *.;.;.' | _ # ~ t # B 1 + ` B ",
"B +.9 t 9 / / 3 } | 8 8 K ` + ) 2 > C > # ) C & l l l k k , , *.*.;.;.*.*., , k k l l l & P D ^ t *.;.;.r r ! B J @ } _ / B o / ",
"# B { ) Q ` > ( # ( ( ' Q B r C } t 3 t P / % & l l l l k & *.*.;.;.;.;.*.*.& k l l l l & $ t _ > *.;.*.> 2 t ~ 3 ) ' L _ ' B t ",
"{ # B _ +.- r ' i d C B B @ ( # ) ( ] / ) > & l l l l l & *.*.;.;.;.;.;.;.*.*.& l l l l l & d u j ;.;.` { ) < P B ' a O + u ) # ",
"| K # # # t O.; ] r # # # ( A P : | ~ ' V t & l l l l & *.*.;.;.;.;.;.;.;.;.*.*.& l l l l & j j *.*.j | o.) ^ # / 8 - B V @ J | ",
"1 ' P 9 8 ` ~ r B ` U P ' ) # ) 9 # : + 3 & l l l l l & *.;.;.;.;.;.;.;.;.;.;.*.& l l l l l & *.*.j K 3 5 9 ` B t - ` _ ) ` 4 ) ",
"u G ' ` ) ..3 ! + ` ) ) ( > U F ) 9 r 6 ' & l l l l l & ;.;.;.;.;.;.;.;.;.;.;.;.& l l l l l & *.j ` 3 A B > + } # } ) t I ) n 9 ",
"` 3 B B C 3 8 ) P 3 V A : t ) @ _ ) { ) ( & l l l l & ;.;.*.;.;.;.;.;.;.;.;.*.;.;.& l l l l & j D 0 B } _ ( G 9 } ) O # # t ~ ; ",
"[ ` # @ + 9 } # ` 9 + # u { n ) # C / C & k l l l l & ;.;.*.;.;.:.*.*.:.;.;.*.;.;.& l l l l & N L B } E P ' { # ^ # B ) v - 8 Q ",
"@ ' ~ U K ` M 9 V #.{ ~ ) ( o +.p # # t & k l l l l & ;.;.*.j ;.:.*.*.:.;.j *.;.;.& l l l l & D # ! r @ 3 # P ` t n O.' ) ' # ~ ",
"t > ) Q ) c 3 ( # B ( | ) 3 ` > _ E { & k k l l l l & ;.;.;.j :.:.j j :.:.j ;.;.;.& l l l l k & B P # n n n 3 ` > ! P r 7 / ` + ",
"( t ; B V 3 I C / O > > + w _ t V # L k k l l l l l & ;.;.;.*.j :.j j :.j *.;.;.;.& l l l l k k ) 2 ` { } _ B 8 ' P @ < # @ ` n ",
"B | t + # P ' # ) P r t t ~ d ) ) 3 & l l l l l l & *.;.;.;.;.*.j j j j *.;.;.;.;.*.& l l l l l & B ) u 9 P ) ; ) 3 C { _ B t ' ",
"# ~ { ..) Q b P - Q _ ( ` N p ~ } & l l l l k l l & *.;.;.;.;.;.*.*.*.*.;.;.;.;.;.*.& l l k l l l & 8 O # + 9 | + n ~ | ] { > K ",
"P + Q ) ( C 2 / u B ] ) B + K ) n & l l l l l l l & *.;.;.;.;.;.;.;.;.;.;.;.;.;.;.*.& l l l l l l & 1 Q ` B + Q C _ t + 9 I ) # ",
"/ r + > d + { B _ 3 # @ # P ^ B & l k l l l l l l & *.;.;.;.;.;.;.;.;.;.;.;.;.;.;.*.& l l l l l k l & | ] { / # _ t # B ; # ) B ",
"V { 8 t t ~ ) + ` ] 9 8 ' B 3 & l l l l l k l l l & *.;.;.;.;.;.;.;.;.;.;.;.;.;.;.*.& l l l k l l l l & 8 t ) b L # Q ) ] N # ) ",
"@ V ~ ^ ( / > ( @ / / B + W & l k l l l l l l l l & *.;.;.;.;.;.;.;.;.;.;.;.;.;.;.*.k l l l l l l l k l & 3 t ' O ) o.I ' { C t ",
"} 3 N ) { - y ` t - t ` ~ & l k l l l l k l l l l k & ;.;.;.;.;.*.*.*.*.;.;.;.;.;.& k l l l l k l l l k l & > P n { t + # r ~ 3 ",
"{ P @ @ + r | - O.C @ L ! B & k k l l k k l l l l k & *.;.;.;.*.*.*.*.*.*.;.;.;.;.& k l l l l k l l k k & ` B @ [ t g B C @ L ] ",
"- ( P t 9 | } r ) ' # p ^ B # & & k k k k k k k k k & *.*.*.*.*.j j j j *.;.;.;.*.& k k k k k k k k & & r ) ' + 9 > ( } _ | # Q ",
"t B Q ` ' o.% 9 { C 3 L ) C + ) ' & & & k k k k k k & j *.;.;.*.j y ) b *.;.;.*.j & k k k k k k & & & 2 P ) n # ' ( O.t I | V t ",
"{ # V B v @ t ^ B 3 U ) N # ) ( > y _ +.& & & & & & ) j :.:.:.:.j ^ | + 8 j j j P ( & & & & & & Q ` # 6 S B # P ) B @ % + r ' > ",
"` { # 3 @ P S B # Q ) ; 9 / ) # 8 _ V 3 P D C # ) ` > t j ;.;.j ` B # P ( B # _ ) > t _ +.# t | V 3 K ` b 3 ~ ( d u _ ' V < r { ",
"O _ ! L ' v # ) { ; p ` / # t ' B # I ) B O ^ _ > t ` / # j j n 2 K ) n # Q { - t ' ` # t { F + P ' n 3 | ) > t } ` 3 p ) ` + ) ",
"r : ' > u _ ] @ t / n @ P / C 3 ) } > t ' ~ 3 9 O.n @ P ) C O / { > u } } + w ) V # T ! B % _ ` : 8 ! ` + t | V % P ) V 2 ) | # ",
"' r ^ ( @ t ) B + P ` M O ) ` ; y ' { # 8 ~ V # I ` N 3 ~ ^ ; t ! ' o 6 { N @ P +.B @ ^ { : u ( [ @ p ( b 3 P +.C + _ ' > a ~ v ",
"V % P ) B % } ) : t %.` # r ' V # P ) B # } ) - t / #.0 t ~ n @ P ~ b + ] ( ; t +./ # 9 / B 3 I / C + / ) > t ' ` 2 r ) B @ P ( "
};
