/* XPM */
static char *_06400b0a1804d40cfc9fdf22a1c9986GUSXMxuU0AhAvlm7[] = {
/* columns rows colors chars-per-pixel */
"64 64 255 2 ",
"   c #0D030D",
".  c #391718",
"X  c #312719",
"o  c #05032D",
"O  c #12092E",
"+  c #020034",
"@  c #01003D",
"#  c #0B0639",
"$  c #180339",
"%  c #15153B",
"&  c #3A1828",
"*  c #2A0E34",
"=  c #250639",
"-  c #3A1B38",
";  c #1D243D",
":  c #3D2726",
">  c #3B2239",
",  c #2B3030",
"<  c #451D1E",
"1  c #4C2817",
"2  c #69251E",
"3  c #431D24",
"4  c #4B1E27",
"5  c #431D2B",
"6  c #571B29",
"7  c #451D35",
"8  c #681C27",
"9  c #6B1A30",
"0  c #4B2425",
"q  c #44222C",
"w  c #482728",
"e  c #4B242C",
"r  c #552B28",
"t  c #49332A",
"y  c #59342B",
"u  c #442233",
"i  c #492737",
"p  c #4C2A3B",
"a  c #532937",
"s  c #4D3737",
"d  c #573837",
"f  c #6A2529",
"g  c #782829",
"h  c #66392B",
"j  c #75372D",
"k  c #6A2836",
"l  c #762838",
"z  c #653A37",
"x  c #763838",
"c  c #3D4332",
"v  c #474836",
"b  c #5A4539",
"n  c #554D38",
"m  c #6D442D",
"M  c #674638",
"N  c #784838",
"B  c #65523E",
"V  c #6B533E",
"C  c #795339",
"Z  c #000144",
"A  c #050349",
"S  c #180445",
"D  c #18014A",
"F  c #161946",
"G  c #000153",
"H  c #070A57",
"J  c #01005B",
"K  c #190455",
"L  c #19005B",
"P  c #131753",
"I  c #260748",
"U  c #2A1847",
"Y  c #331C4B",
"T  c #250A58",
"R  c #301355",
"E  c #1D2347",
"W  c #1D2255",
"Q  c #252547",
"!  c #372449",
"~  c #372556",
"^  c #303252",
"/  c #030267",
"(  c #190467",
")  c #140E75",
"_  c #2D106E",
"`  c #1D2172",
"'  c #312A70",
"]  c #46164B",
"[  c #6B174A",
"{  c #482744",
"}  c #552A46",
"|  c #4C3647",
" . c #533C42",
".. c #573948",
"X. c #492D57",
"o. c #593956",
"O. c #663A45",
"+. c #71324A",
"@. c #641E6F",
"#. c #512F6C",
"$. c #3F4670",
"%. c #5A4547",
"&. c #50484B",
"*. c #5A4754",
"=. c #664847",
"-. c #764946",
";. c #645344",
":. c #6C5543",
">. c #695749",
",. c #6B544B",
"<. c #775946",
"1. c #735C4A",
"2. c #654856",
"3. c #784855",
"4. c #6B5454",
"5. c #695557",
"6. c #775A57",
"7. c #75614B",
"8. c #7B624B",
"9. c #6E6250",
"0. c #7A6456",
"q. c #524669",
"w. c #744B6D",
"e. c #6C5761",
"r. c #745B64",
"t. c #7B6463",
"y. c #891A24",
"u. c #8D2E2F",
"i. c #873938",
"p. c #AC3434",
"a. c #D92934",
"s. c #F82F33",
"d. c #8E462C",
"f. c #87493A",
"g. c #974838",
"h. c #89553B",
"j. c #94583D",
"k. c #B04F3A",
"l. c #95623D",
"z. c #C65139",
"x. c #FE4C3B",
"c. c #853946",
"v. c #8F304B",
"b. c #A43645",
"n. c #972B6C",
"m. c #C93850",
"M. c #FA3448",
"N. c #874646",
"B. c #964748",
"V. c #885747",
"C. c #965949",
"Z. c #884855",
"A. c #885757",
"S. c #955957",
"D. c #A54949",
"F. c #A55946",
"G. c #B0544E",
"H. c #B85756",
"J. c #87644C",
"K. c #996547",
"L. c #856757",
"P. c #996558",
"I. c #947150",
"U. c #A56949",
"Y. c #B46D4E",
"T. c #AB734A",
"R. c #A66959",
"E. c #AB7457",
"W. c #B57958",
"Q. c #8A566D",
"!. c #995C64",
"~. c #B4506F",
"^. c #836767",
"/. c #9A6663",
"(. c #896A74",
"). c #A76963",
"_. c #A97466",
"`. c #B47A67",
"'. c #B07174",
"]. c #CC5949",
"[. c #F7534F",
"{. c #C56649",
"}. c #D06E51",
"|. c #FB6E51",
" X c #FE5973",
".X c #CA726B",
"XX c #F3706F",
"oX c #BA8373",
"OX c #CE8373",
"+X c #10088A",
"@X c #2C138F",
"#X c #312990",
"$X c #1006B3",
"%X c #2819A7",
"&X c #2F15B1",
"*X c #1D24B1",
"=X c #322EAE",
"-X c #5D129F",
";X c #502C90",
":X c #6A3193",
">X c #522BAE",
",X c #6E2FAC",
"<X c #3B40B9",
"1X c #5E4D96",
"2X c #514AB2",
"3X c #7255B0",
"4X c #180CD0",
"5X c #2A12D0",
"6X c #342ECF",
"7X c #100AFD",
"8X c #330FF7",
"9X c #2A1BFD",
"0X c #312EF6",
"qX c #502DCF",
"wX c #6D21D6",
"eX c #5112FC",
"rX c #6F13F5",
"tX c #5231F7",
"yX c #6F2DF9",
"uX c #6637FE",
"iX c #3E43DC",
"pX c #3C42F9",
"aX c #4F4FCE",
"sX c #6A4CC9",
"dX c #4548FE",
"fX c #534CF8",
"gX c #5758FF",
"hX c #6744FD",
"jX c #7745FF",
"kX c #7255FA",
"lX c #7663FF",
"zX c #95309A",
"xX c #CC31A2",
"cX c #895192",
"vX c #9D4CA4",
"bX c #D152A4",
"nX c #892DFA",
"mX c #A026E5",
"MX c #DF19E8",
"NX c #CB31FB",
"BX c #F730FF",
"VX c #8E56CC",
"CX c #A567D1",
"ZX c #924EFB",
"AX c #AE53FC",
"SX c #9272FC",
"DX c #B06DFD",
"FX c #D575D1",
"GX c #CF52FC",
"HX c #F750FE",
"JX c #CB6BFC",
"KX c #F86AFD",
"LX c #FA78FE",
"PX c #CA8CB6",
"IX c #EC8DE5",
/* pixels */
"1XGXJX:XDXLXLXHXAXyX7XHXtXH VXyXAXDXKXHX3X2XeXAXNXrXAXZXsX=XDX3X[.%.*.*.&.*.*.*.*.&.f.v b =.M v %.b f.m b k.M b M A.C <.A.M M M ",
"V.;.;.;.%.;.;.;.N.V.;.,.2.2.2.&.N.%.Z.*.AXF ~ ! ` K ; ! H W *XT _ uX! P 0XE K E E ~ H E U F F W E H j.f.B B B B C B B f.V.=.=.g.",
"h.,XP F P VXuXY <X( % E ! ! E Y W ` F F ! T Q L Q +X; H K F H E T % Q Y J K L F ) ; ` / A T * E H U x.h.B b M V V.<.V.:.;.,.5.B ",
"V pXhXdX].,.;.,.,.;.;.%.;.-.N.*.5.5.2.2.5.5.S.Z.2.5.5.5.5.5.5.S.A.,.5.;.:.;.n N.%.V.;.b b :.V :.j.j.:.V V h.iXfX` ZXAX3XZX,.5.;.",
"B ~ 0XVX0X2XiXk.V z.V b M M B B b f.,.C.,.,.:.;.,.;.S.S.5.5.e.5.r.r.5.A.N.=.*.2.5.2.*.5.A.S.6.{.F.<.5.5.A.6.[.|.5.5.P.5.ZX<.;.B ",
"B Q dXdX5.S.5.S.;.C.J.<.6.J.}.C.5.}.G.V.,.L.5.;.=.P.5.6.e.J.6.P.V.{.H.0.V.<.5.6.V.e.[.V.5.,.,.V.5.;.6.A.A.e.5.5.S.A.e.6.5XC.,.<.",
"B ~ ZXlXe.:.,.;.G.,.;.M =.;.;.;.,.H.1.&.3Xv E q.F F ! aXvX% 2X2X2X; O F 2XS A q.1XU $.U ! U sX> ! I W [.;.:.:.:.;.b e.6.jX,.%.;.",
":.V ;.dX5.:.[.1.,.5.,.1.V.<.B B ].V ;.V ,.:.M B V G.:.M B :.<.V V ].,.5.A.,.,.,.5.,.].6.6.e.e.5.Z.%.5.H.,.jXZXGX4Xf.5.J.kX,.C.V ",
":.:.:.dX5.:.; k.B :.:.1.<.:.:.V G.;.,.,.,.6.C.Q % Q P I = @ $ b.a i i p ..2.5.5.H.5.5.6.5.5.6.,.H.5.,.4.b ;.,.>.%X,.!.x.gXS.C. X",
"B :.:.3X5.:.Y ,.6.6.C.V.:.6.H.].<.<.<.6.V -.:.<.S.M z ..} u.a } } +.} p } } k =.=.V.=.1.,.;.V.1.,.,.C.:.:.B :.;.#XV.r.:.kXS.;.g.",
"j.1.<.dX5.:.R 1.<.6XJXaXZX[ 9X#.#XfX0XgX>XQ ZXAXrXxXtXZXMXtX+XA T :XG 5XM.l 7 u q r.e.A.!.6.S.5.5.>.,.,.,.V.C.k.CX;.Q.,.dXAX,.,.",
"V C.j.aXZ.G.F :.V.jXC.<.j.V 1.<.V V <.C.F.<.b y y h h m i.i.d d y r r i i 8 8 p u & u 4.r.!.5.S.r.r.e.5.S.,.v :.=XB !.B ZXgX6.V ",
"[.K.h.P S.1.^ :.G.HX1.6.6.6.6.1.P.C.1.7.1.z y d h u.d.m y y h h r r g g 0 0 0 . < 0 8 M F.1.1.1.6.,.%.C.e.S.v ,.%XV kXC.7XgXr.;.",
"r.7.1. Xr.7.~ <.7.LX1.t.1.S.V.,.1.1.6.A.B.i.z O.O.-.G.* T - * S J $ D # ( Z $ a.& 5 u 5 =.5.9.6.C.C.,.P.r.1.v 1.AX1.bX~ 3XZXt.J.",
"5.<.1.ZXr.8.^ 8.L.AX7.t.V.1.6.1.(.XX(.6.y h x.V.V.K.K.{.l.h.C k.m y r r f 0 . 8 4 . . & & dXF tXQ ^ 8.5.|.1.v 1.jX1.fXW kXSX/./.",
"{.<.V ZX6.8.{ J.J.#.8..X:.^.U.F.-X+XfX_ #X#X@X3XlXVXn.,XzXQ.n.1X2X+X+X( nX5Xs.u - - - { Y 9 r.6./.dX1.6.(.C.v 1.gX7.aXX.gXlX^ <.",
"J.<.:.V.e.8.6.}.8.U.8.X 8.8.8.9._ X.Q nXI Y X.+.*.2.2.JX=.DXo.} Y I - * K K G D MX@ D $ G @ nXT 5.^ 1.B 6./.n 1.KXP.2XR [.DX' 1.",
"}.7.:.0.6.8.}.Q 8.7.L.^ 7.0.8.Y.LXAXeXnXbXHXLXcXLXSXcXDXJXJXKX[.H.3.z d d } i u 9 7 8 - & u u [.5.^ 8.k.r.{.n 7.VXP.ZX;X0.JX| 6.",
"(.J.8.8.t.J.0.VX8.8.R.^ K.L.0.t.gXF $ # - | FX#.CX|..XW.`.E.).P.S.F.-.B.z } p a i - [ 9 & * & g 5.R :.b 0.0.n 7.GX1.ZXfX0.GX'.<.",
"t.J.U.8.t.8.t.' 7.U.P.X 8.(.0.0.gXQ ) +X1X:XCX|.|.U.T.E.T.U.K.Y.V.C g.m =.p e a l 7 - [ - & 6 8 6.; C.b I.<.v H.2X0.vX' /.tXt.J.",
"(.Y.L.}.^.{.^.Q 8.Y.~ ! 8.(.L.t.dX( #Xp.F.P.).).|.E._.`..X).R.x.h.h.N z.m h r 3 5 8 5 3 - & & &  .E 1.V A.;.v 1.ZX9.JXX.t.VX6.[.",
"R.F.U.0.XXJ.^.~ 1.J.Q X.{.I.8.V.yXqX+X3.!.P.'._.`.|.{.K.U.|.U.l.k.k.h.h.C N i.l u i - & ] 6 & & 3.E h.v 6.%.c 1.CX,.1XjXt.9X^.!.",
"0.J.8.t.|.0.(.W K.L.#.X ^ R.Y.;.,X0XnXB.R.3XDXLXZXnXJXwXJXvXjXNXuX#XkX5XmX%XsXnXwX&X& 8 { G 8 & %.hXb t 2.V v 1.dXP.q.( t.KX^.6.",
"V.:.1.5.' <.(.^ L.L.L...2._.J.].mXG 9Xg./.DXC.).XXU.T.T.|.].V.V.V.V.V.V.g.m y g 0 rX/ 5 { $ 5 . &.0Xt t *.,.c b GXF aXZXr.FXt.6.",
"H.B ,.5._ M 5.VXY.^.^./.o..XC.Z.tX8X@XO.A.mXf.N V.C.z.C.N z d.m m h d.m m z i.9X0 8Xo 5 9 $ f 5 k 0Xt t 2. X, ;.CXU aX~ 5.AX).6.",
"2.b %.*.E M =.3X1.L.t.(.o.^.,.V.) = %Xo.=.tXP.G.g.K.U.V.d z D.J.V.k.f wX( ZX>X>X< 7X$ 5 { S 4 4 > D d : M =., ;.;XZ ' P 5.4Xt.6.",
"2.s %.*.% ,.H.@ 0./.^.'.' t.,.z / * 0Xk.z NXh e z N.R.B.B.-.N A.z y z y i.g.] #X4 4XG 7 [ + 5 & & S s : X.%., b -XP NXG 3.dX^.0.",
"2.d %.2.K *.2.^ 1.1.S.%.R (.6.r yX= #XC.!.ZXR.N.G.S.|.-.-.V.[.S.A.6.-.H.P.h.;X:Xe 9X( 9 @X@ 4 6 u uXh t -.b , b sXD tXP Z.wX6.0.",
"N +.%.D.L =.%.T 0.B.N.%.# 5.=.3.8XrX5XA.'.}.f.C.K.P.{.  D - R ] C h.j.K.S.k.@XzXg 7X$ - zXJ 4 f > qXf : 2.g., k.9XZ 0XpX*.gXS.S.",
"*.s [.*.( b...tX%.B.s %.% 6.d -.9X8XA ].{.K..XR.P./.R.{ V.G.R.R.R.}.R.l.A.g.0X) 3 s.J - $Xg i e & A j t N.%., v =XK #XuX*.0X*.A.",
"z x uX%.A %...G  .s | %.uX3.d O.eXwX&X-..XU.'.).P.P.U.:XA.{.K.}.E.Y.S.h.3.h 0Xu.f 7 + 7 +X6 q e 8 I d w &.s , M VX#X6XH &.kX&.%.",
"..s 0X%.$ d  .sXx s ..N.= d i.y NX# &Xf.'.{.T.|.P.P.Y.! <.} j.j.U.K.C.f.D.N.o 3 3 5 @ k ( q 4 q & A M s N N c R dX^ pX~ 2.lX;.5.",
"%.%.jX*.#  .d 6X .d ..s D } x r tXK yXb.!.l.}.CXC..X|.} 3.( z.}.U.K.A.C =.z I < e u D i rX& & 3 g / t X &.i.d H 0XZ 6X* *.9X,.*.",
"=.b ) ../ ..N.Z c...p  .tXD.i k T A wXp A.].K.mX-..XY.D N.I {.j.h.V.G.N O.z K g 0 i + u wX& & & & $ z : c.2.q.I +XH.' ( | 7XN.&.",
"O.%.+X*.% ..M.6Xd *...x 0Xc.a a 8XnXI 7 g.h.C.kX.X-.h S y z P.H.A.A.-.m d x ( 0 G 6 @ 7 G q e & & >X .X i.y s = hX*.=XK ..7Xd | ",
"O.%.0X| O *.BXtX%.p o.| uXp i +.f A eX{ S.N ~.3XP.P.N * N F.V.C V.h.g.N c.x _ 3 @X3 + 7 4Xq q y.: o  .X 2.d 2.$ hX| 0XNX+.sXs | ",
"| ..4X| o ..0XJ  ...c.d Z  .p +.g L $X} v.h.!.@XH.V.C.}   U @.N F.-.M =.O.x #X3 &X: D 9 4Xq e L & eXs t =.i.i.Z s.| *X# x NXs | ",
"+.[.9Xb.I *.uXS %...c.s ) w...g g tX>X} v.g.S.tX).).U.V.-.N C.V.].XXh.f.z j 6Xe 7Xy.+ 7 @.e 5 Z y.4Xl z =.d ~.H b ! :XS s fXN +.",
"| w.jX| # v.F = | m.....BXc.o.e x >X@.> 4 h XX3XP.S.M x B.-.x.@Xw.ZXL zX%X0XU e +Xq D { %X& y.D Z %Xx B.-.M s $ b | #.S &.rX%.+.",
"..w.yX*.F v.S S &.U | x 8Xs o.a e D -Xu.7 0 M qXA.P.A.D.3.3.D.-.-.-.z y i.a i g +X3 L [ +Xy.u Z / u.x D.o.d w.Z b *.0XI b 4Xs d ",
"..w.hXs F #XT J 2.% *.=.# 5.Z.d e :X9Xe e e e nXsX>X;X3X#X' ;XfX@XtX5X7X6X-X5X5X$X& @ S ' 3 8 ( @Xp a o.x.3.=.T b %.=XS ..ZXb s ",
"c.2.4Xi % :X% D M.% *.d uX%.+.s w D +.a M.0 +.0 Z.V.U.}.j.!.Z.g.y r r y u.0 < w w q $ + +Xq 3 u -Xi i -.b  .G.F b Z.[ H %.7Xb s ",
"..O.VXs # 6Xo Z B.* 2.;.jX%.| s w r 7 a p u.r 0 0 h C m d.p.A I # +X* G Z o + Z D D K $ ,X. 3 & ,Xu p O.s -.d + b 3.pXI b x.x s ",
"+.Z.4Xs A 4XeX=X2./ %.N.7XG...p.e a b.7 a.} } } v.o.J A ( #X* #XL #.X.%Xo K D ;XD S 9 J &X. v.5 @Xk i ..s w.j L %.*.g.Z s x s GX",
"..*.dXd P :X` / M T *.b U ;.2.s 0 5 a a e u 3 u.: 3 0 y h r 0 s.#X) I ] xX,XmX#X9X@X4XZ 0X& 3 8 G q v.{ s } w.P D.&.s BXx t d Z ",
"..2.uX .U =XuX0XcXP 5.b G ;...d u.5 p { 7 p 7 7 { u.7 O.=.2.O.O.a d p.z d d z z y e y.i & q q u.U e xX| s s j $  .%.x M.N.t f.Z ",
"2.Q.hXD.P xXF >Xb F D.;.~ ;.2.%.l e l l a i u p { p +...D.3.=.O.d ..O.M.x h m f.h u.k a 3 4 4 > *Xu K | w =.t S %.&.s Z.b d %.HX",
"*.b hX%.Y aX% F 1XF GXb HXb *.%.a e 3 a k 5 k p k { p d 6.A.3.B.N.=.O.=.=.=.-.=.B.i.4 3 i 5 & 3 4Xq @X& q M =.F =.%.%.*.B b b DX",
"=.d @Xs D =.fX2.b F A b F B ....p a { b.} { } { u p p M.2X] q.2XzX2XzXD ;X#.vX$ $XJ 4X_ &XZ 5X@X+X5 ( { l s.z D t s s %.%.;.M S ",
"%.M uX%.% p # %.M # =Xb GXb k c.} { p & 5 i u a a.O J - > U Y a _ R j.C h.k.h.m d.h r r 4 < g w y f eX- 8 { O.+ : d t ..y j t G ",
"N.d _ d - p Z x D.% +Xd +Xw p.t 0 q q 4 0 < 0 s.yXHXKX9X6X#.>XAXNXuXVXkXZXuXAXaXAX@.nX;XmXqXrXqX9X7X7Xp.& { +.D i x s  .t j j G ",
"d y nXd S +.@ y r $ @.y # # G { +.{ } p 6 7 l O.3.B.C.I.K.K.K.C.[.[.}..XP./.U.A.{.F.=.O.+.6 p.k z f +.p - - d @ s l d =.g.%.b GX",
"i.=.nXy *  .$ s r @ %Xu.  ,X    @ [ R $ #   * . { | P.Q.| cX1 /.X.| ).o.t b P.P.V.3.O.} } } c.g e i p u u { w Z s %.=.Z.W :.<.P ",
"z ].VXb I l tXx y G eXO + 6X+ ( $ >X$ @ $ VXR o.GX3X3XX.| o.#.} %.2.3.3.U.K.K.G.g.z y } O.....d l +.} } { { 0 @ p.d i.f.Q <.C kX",
"-.w.uXh Z p o d w.$ L = ( Z G $ L J $ / G R p ..%.| T.T.T.}.T.T.T.T.}.}.k.l.K.K.h.m r u.s.~.h m.+.+.w r 0 r 0 o i y x d ( m g.R ",
"y m GXp.i.d @ d h O.d z r r m.4 g r e h y '.E.U.U.Y.}.}.T.T.U.U.T.T.W.{.}.T.K.l.j.f.z z u.u.d d u 5 5 p i s.o D i a | M % B M I ",
"M ~.) h O.d A d r r j y < 8 & i 0 r r y k.|.R.'.OX.XOXoX.X.X.XXXU.R._.E._..X).Y.}.C.+.z.O.O.d X.} } b.i v.} u.} { 4 { y T h h & ",
"-.~.9XN c. .D O A L J # + rXD J +...O.b.D.R.`._.'.`.`.E.}.}.W.W.T.o.s o.-.}.{.K.h.N h h r u.y g 0 w r y h 0 g u.e 3 - e = y b = ",
"g.!.ZXj z d d N.f.d d a u q i w g i.h h h.K.T.T.W.}.}.}.T.T.W.E.W.}.W.}.E.R.K.K.h.-.O.a.&X%X` 9X%XqXO...O.l } +.{ { { 5 +Xi.h D ",
"M Q.+XM B.y x O.z ..7 [ v.{ X.p ..3.B.A.{..X`.`.`.`.`.`.XX`.}.E.E.`.E.U.I.{.{.K.k.m M y y y h a.I } Y U J 7 J < 2 8 : } $ f f S ",
"M [.kXM -.M h h a.G = @ D = 5 p M -.|.K.R.W.E.E.`.`.|.oX`.`.'.`.'._._.XX`./.P.V.S.x O.d s.R R @X- Y * Y hXR R @XxX9X+X+ + 7 & G ",
"u.3.nXf.i.m h r 3 a u i s l u y N K.{.T.T.T.|.W.E.|.1XIXSXIXPXSXLXjXuXLXSXhXlXZXhXnXtXwXyXjX0XrXKX8XnXuX-XL 4X@XHXyXl p - i p L ",
"z +.i.z z m D.w p e u l e i 3 g M l.U.T.|.W.T.|.cXJXvX2XSXPXPXKXCXIXSXAXPXLXCXn.;XtXbX&X' AXqX@X,XrX4X/ 4XNXrX@X+.- - { > k > @ ",
"y z M M g.N =.f u i e i e f i u.z f.K.W.W.W.E.|.#.O.o.w.w.oXoXoXOXOXoXoXoX_.)./.G.3.c.=.3.O.a 5 & u . y.S nXG @ J S BXZ @ D Z $ "
};
