/* XPM */
static char *result[] = {
/* columns rows colors chars-per-pixel */
"64 64 252 2 ",
"   c #3E1B53",
".  c #491A49",
"X  c #4C1C4D",
"o  c #561847",
"O  c #531C4C",
"+  c #5B1C4C",
"@  c #520E52",
"#  c #471856",
"$  c #4C1C54",
"%  c #4C1C5C",
"&  c #541453",
"*  c #541C53",
"=  c #5A1C54",
"-  c #571458",
";  c #531C5A",
":  c #5A1C5B",
">  c #63194A",
",  c #611B59",
"<  c #482347",
"1  c #4B234C",
"2  c #57234A",
"3  c #53234C",
"4  c #4F3A4E",
"5  c #442455",
"6  c #4C2353",
"7  c #4C235B",
"8  c #532354",
"9  c #5B2253",
"0  c #572856",
"q  c #53235A",
"w  c #58365A",
"e  c #682953",
"r  c #69365B",
"t  c #74365B",
"y  c #4B1761",
"u  c #581B62",
"i  c #582964",
"p  c #512668",
"a  c #5B3568",
"s  c #5D3973",
"d  c #672A67",
"f  c #6B2C6C",
"g  c #762B68",
"h  c #643464",
"j  c #6C3464",
"k  c #643A64",
"l  c #6C3A64",
"z  c #63356B",
"x  c #6C336B",
"c  c #643B6C",
"v  c #6D3A6B",
"b  c #733465",
"n  c #753967",
"m  c #73356B",
"M  c #672C75",
"N  c #732B73",
"B  c #633473",
"V  c #6C3372",
"C  c #683A75",
"Z  c #743773",
"A  c #47494A",
"S  c #56494B",
"D  c #4B534B",
"F  c #56564B",
"G  c #4B4654",
"H  c #564A56",
"J  c #4B5756",
"K  c #555757",
"L  c #6A4C54",
"P  c #56624A",
"I  c #4F6E52",
"U  c #686E5C",
"Y  c #524B64",
"T  c #6D496A",
"R  c #5B6D6E",
"E  c #686868",
"W  c #746768",
"Q  c #687569",
"!  c #6C6C73",
"~  c #677774",
"^  c #80366B",
"/  c #4D994B",
"(  c #56994C",
")  c #4F8B50",
"_  c #558856",
"`  c #499757",
"'  c #569955",
"]  c #649853",
"[  c #55A54A",
"{  c #4EB04A",
"}  c #49A755",
"|  c #56A655",
" . c #56B856",
".. c #68AB57",
"X. c #589469",
"o. c #6D916F",
"O. c #6A9A6A",
"+. c #4DAD61",
"@. c #68AA68",
"#. c #73AC6F",
"$. c #69B86A",
"%. c #74B768",
"&. c #6AB776",
"*. c #55C64C",
"=. c #4BCF52",
"-. c #57C755",
";. c #54D655",
":. c #55E650",
">. c #57CE67",
",. c #6AC768",
"<. c #6FD16D",
"1. c #68C473",
"2. c #61E563",
"3. c #6BF46E",
"4. c #67FD68",
"5. c #80CE70",
"6. c #5B0095",
"7. c #5A0890",
"8. c #5D009C",
"9. c #64008C",
"0. c #6B008C",
"q. c #73008B",
"w. c #640094",
"e. c #6C0094",
"r. c #64009C",
"t. c #6C009B",
"y. c #730094",
"u. c #7A0095",
"i. c #73009C",
"p. c #7A009B",
"a. c #6A1B92",
"s. c #5E3693",
"d. c #71308F",
"f. c #672996",
"g. c #673799",
"h. c #743697",
"j. c #5D00A3",
"k. c #5C00AB",
"l. c #5809AB",
"z. c #6400A3",
"x. c #6B00A3",
"c. c #6400AB",
"v. c #6C00AB",
"b. c #7300A3",
"n. c #7A00A6",
"m. c #7400AB",
"M. c #721AA6",
"N. c #6800B3",
"B. c #7400B3",
"V. c #5D2BA5",
"C. c #6C2EAE",
"Z. c #6936A6",
"A. c #7336A6",
"S. c #68459A",
"D. c #754499",
"F. c #66779A",
"G. c #6843A7",
"H. c #704FAA",
"J. c #6D70A5",
"K. c #5C00C8",
"L. c #5B00D8",
"P. c #6A00CA",
"I. c #7400C8",
"U. c #621CC2",
"Y. c #6400D3",
"T. c #6C00D3",
"R. c #6400DB",
"E. c #6C00DB",
"W. c #7500D8",
"Q. c #5C36D9",
"!. c #6C2ECE",
"~. c #6936D5",
"^. c #5B00EF",
"/. c #6400E6",
"(. c #6C00E4",
"). c #6C00EB",
"_. c #7400E7",
"`. c #6B00F4",
"'. c #6700FA",
"]. c #7500FA",
"[. c #681AFF",
"{. c #5C28FC",
"}. c #6A31F2",
"|. c #6B44D5",
" X c #6678D5",
".X c #5E4DEB",
"XX c #7046EC",
"oX c #870096",
"OX c #9A0099",
"+X c #B8008C",
"@X c #A70095",
"#X c #A4009B",
"$X c #AC009C",
"%X c #B80096",
"&X c #B3009C",
"*X c #952E99",
"=X c #AD2D97",
"-X c #8F03AD",
";X c #9A00A4",
":X c #AC00A3",
">X c #A700A8",
",X c #B300A4",
"<X c #B800A8",
"1X c #B41AA3",
"2X c #A700BA",
"3X c #B600B8",
"4X c #9A2EAA",
"5X c #AA2EAF",
"6X c #D1008A",
"7X c #C70099",
"8X c #D60099",
"9X c #ED0095",
"0X c #FF0095",
"qX c #FF009B",
"wX c #CC2D99",
"eX c #F72E99",
"rX c #C800A5",
"tX c #D500A6",
"yX c #D207AE",
"uX c #E404A6",
"iX c #FF00A3",
"pX c #FF00AB",
"aX c #FE00B8",
"sX c #D22EA8",
"dX c #FF27A6",
"fX c #F736A8",
"gX c #B04595",
"hX c #A842AA",
"jX c #A562A6",
"kX c #CE4C97",
"lX c #FF469C",
"zX c #EC56A8",
"xX c #9902CF",
"cX c #A800C7",
"vX c #B600C5",
"bX c #A800D6",
"nX c #B400D7",
"mX c #9930D5",
"MX c #AA28C8",
"NX c #AF31CC",
"BX c #9A00F0",
"VX c #AB00F2",
"CX c #A82EE9",
"ZX c #CE13D3",
"AX c #FF00C9",
"SX c #F509CB",
"DX c #FF27CB",
"FX c #FF00FA",
"GX c #A64ECC",
"HX c #A267CF",
"JX c #FF46C1",
"KX c #FFF5F6",
/* pixels */
"4.H FXn.OXM.U.T X.C ) < tX_.x.sXg.i r F P 6 `.Z.1Xe.vXT w 0 o.U b.VXx.i.,XT X.o.4 3 '.0.<Xz.MXw 0 K = $ b.~.N.8X>Xi - w g T ].-X",
"j fXb.c.i.).$.m > 9 a hXe.tX~.t.I 2 1 1 F MXx.r.:XE.3 2 z ! E OX6Xe.T.e.Y l % K T AXt.c.A.E.$ o + K 2 5Xw.tXT.m.$ 5 N #.g -Xq.v.",
"W T + I /.>Xx.q.HX7 % 0 3 I k.!.8Xg.>Xv * = r $.'.x.x.g.AXx W N 2 ) k.xXz.Z.4X$ * : o P W.Z.kXr.xXZ ; % t >.z.E.g.x.iXx R f 0 } ",
"i.:Xr.`.;.o b ! r pXw.b.v.}.>.r q 8 s 2Xq.yX!.S.) + O 8 - MX0.w.5X).}   Z W z 0Xt.oXD.`.,.r % X c ;X9.rX Xt.` O 8 < * mXv.h.;X).",
"5X: 8 7 O 2.n.~.b.tX#Xz 3 p f 4.].;Xx.r.vXm W V I } e.T.rXt.5X= q * J } E.V.6.w.AXh = 8 W <.x.nXu.z.;Xh E ~ & ) ).i.rXx.4X= 6 K ",
"!.w./ . 3 # Y 5Xp.tXr.).` ; l ! ~ OXe.b.OX`.2.v 8 K Z 0Xt.v.~.x.` 3 7 P + MXy.rXt._.} o k @.c $Xp.t.>X`.<.n K y Z 0Xe.i.~.t.) + ",
"m.z.fXd.6 = c 3.].$Xj.8.4XV ! T 2 / R.r.7Xr.GX* O 6 < / t.~.b.S.pXB ; 1 z 2.].t.v.kXcXn ! m o } c.2Xn.h.5X. $ % * ` W.h.sXz.2XZ ",
"3.m L 7 B pXr.t.R.J._ 2 9 - : MXe.8Xh.(.) O v W C >Xq.t.4X).2.g $ % Z iXr.c. Xz.} & ; 8 $ MX7Xg.i.`.{ * Z ! x iXx.G.I.q.<.d $ , ",
"KX,Xn.8.U.:.T Y O T wXR.v.7XG.3 -.b L J W.b.1XV.SXv v + =.` k.xXx.w.<X5 V w 8 2.W.v.<Xp.NXo o l ~ ( r.L.C.tX,Xk d = A =.BX0.i.r.",
"Y g D iXr.m.i.W.=.* - R r >X8.eXE.e.+.x x K + NXz.x.@X_.@.7 H Q > pX6.t.k.`.} $ H m n :Xu.sXE.u.| B o.# 1 4Xv.c.<XE.#.. ) d O OX",
". $./.-Xe.0.NXD = m v | b.T.wXt.>XU d o 7 *./.m.i.r.lXo N G . $.(.c.m.&XHXw . V L _ q.W.f.w.fXr M > < 2.BXb.m.S.OXo N G . ,.T.tX",
"o mX9.tXg.W.%.: H g o @Xz.c.=X].2.8 X m x iX8.f.Q.r.| B d y 7 sX@XC.v.(.O.% 4 M $ iXw.G.b.).| 6 9 d T >X7.zXI.i.} z Z , o NXg.u.",
"& V b ' S.E.f.rX>Xl d 9 1 *.CXn.r.z.>X. d S # %.~.rXt.r.CX2 = t s :.t.W.sXe.$Xl f X $ :.].t.w.r.iX9 d S =.E /.;XN.w.NX2 + b ~ +.",
"y.sXT.r.} V C K O 5X8.x.@XY.1.7 H U o &XrXt.8.`.+.i L x r iX6.V.W.0.' p Q O 0 5X+Xr.b.(.1.1 _ b 1 pX6.e.n.].=.H q N l >Xx.wXI.r.",
"$Xn E o $ ;.E.m.B.j.pXD x 4 9 1._.;Xx.e.5XI O C p / r.T.sXr.<XR g 0 & >.].r.e.7.lX< f w 5 &._.b.r.%XHX2 & b c _ u.T.M.6.fXn f X ",
"2.2 K ; O N t aXw.f.~.b.} l Z + * 5X&XZ.t._.5.6 4 B o iXw.g.n.`.=.6 9 M v <Xz.zX).t.` B c - o NXg.b.:XI.$.7 Y d O +XkXt.v.`.-.5 ",
"KX:Xv.4.T C 4 o CX>XA.a.I.$  .o.+ 2 8.nXkXi.9.H 9 w <.r '.S.A.y.aXa T x , ( C.}.v.3X&X$ & ! 0 | .Xj.u.tX2X4 X 6 k %.G.W.f.i.0Xa ",
"( J Z L Z qXB.A.W.k.,.X.= 3 J vXe.8Xi.^.{ I E 0 5 &Xe.x.>X}.*.* d.f d pXx.g./.z.2.C & 1 A 3X<Xt.t.R.;.0 ! q # ,X<Xn.t..X{ = d x ",
"}.;Xb.w.&XO 2 %.3 { /.u.tXk.cX4 9 J m O.w.I.A.t.0Xt j E $ [ {.m.y.<XcXq K ! 9 } t.T.c.7XOXG H - k ,.).t.g.n.aX! l a 2 ] V.bXm.t.",
"R : 5 3XgXc.k.{./ 6 n n a 0XD.V.E.j...T X X H 5X&Xz.u._.} * W X 7 gX+Xx.x.}./ 2 m k a lXn.C.T.v.O.Z 9 q I >Xz.tXr.E.[ = E 8 J @X",
"$ / c.T.u.wX&XG 9 0 B X.).c.J.8.AXs M b 8 [ V.T.G.7X@X9 2 W + { ^.w.A.7XvX4 X u t ,.t.~.Z.e.qXL j b ; [ {.A.N.tXvX- p W # / s.E.",
"G xX-XrXt.R.| I ! q # :Xt.x.&X{.:.7 r n s &Xe.Z.Y.-X4.Z 7 6 G 3X8Xe.b./.:.X E - * @Xx.x.xXH.{ 9 C v v aXm.A.B..X@.n o 7 G %X7Xz.",
". q Q ,.x.P.g.r.iXV x z H ( [.@Xx.b.@XX 1 @.# ( Y.n.tXc.>XJ & J Z ] z.W.h.m.0XT v E 5 [ {.n.w.7XcX% J Q y ` c.(.c.7X@XG J q C %.",
"hXs.E.@X%.l u + G 5X<Xx.8.)./ 5 E X # gX8Xb.u.[.] ; l j r lXn.h.P.8.O.M . $ _ 2XtXx.t.).| 9 ! p P OX3Xz.E.V.| e x s Q AXx.A.p.R.",
"KX4.d Z $ w ZXf.x.+X|.e # -.Y 4 e.v.ZXz.gXw w 3 s <.E.t.r.F.aXg g c 5 ( e.CXk.Z.$X8 $ O D ( P.t.sX9.vXb 5 q a o.b.T.G.s.iXV V k ",
"sXQ.| $ B f r >Xd.e.N.GX#.v 1 4 l iXz.q.T.h.| J % & 3 cX$Xx.J.).} 3 n d l qXs.z.G./.,.m = 2 L &Xq.uX|.z.[ Y X - + vXk.C.4X).} ; ",
"z.w.vX2 - e F :.i.I.tXz.:Xk 4 8 r 4.].0.i.A.pXa d n 3 =._.=Xb.8.3XX . - ` ` oXE.8Xj.>Xr G 3 E %.'.k.B.g.AXa r ~ 3 _ y.!.e.+X>Xo ",
"( J * ; P bXi.OXf.).| # j M U qXs.0.b.`.,.a o Q r %Xw.tX/.r.| S * H 1 3X8.m.4XL.' 5 C E r 3XwXc.W.b.O.T D 4 c aXe.z.e.L.( D I @ ",
"t.W.y.7X<XE G = B o.BXn.e.g.hXr f t   ' (.wXc.r.NX2 @ e S | r.R.tXq.=Xr 4 # B <.W.0.z.F.iXt d x 3 +./.*Xb.g.vX0 & = J ] y.W.kXq.",
"o G t @Xr.6XP.h.{ D $ & = 2X8.i.kXW.( 7 v a r @Xg.x.XX@X&.Z 7 G k AX0.e.G.(.[ H 3 X 2 &X,XC.!.r. .q B N r AXs.h.i.].o.l $ G r <X",
"z O.XXe.v.g.qXa N ^ # ` }.*Xb.w.cX9 ; ; F :.w.T.tXr.:Xl G < s 4.].z.m.s.iXr Z b % =.Y.f.v.7XcX2 y % ' ` i.W.v.r.pXv 4 - E %.VXN.",
"NXyXA.e.r.(.&.T : I t +Xi.tXI.0.[ D o D $ vX8.x.4XW.| y x ! t qXs.p.b.(.o.N S H l &X6.8XI.w.( K F & < nXk.p.wXL.' O ~ B n 2XZ.B.",
":.4.j m FX7.4Xn.C.k Q p  .q 7X.Xx.uXx.J 4 n = *.(.dXk.j.i.K J m m @.L.c.tX>X!.W B : - | p.Q.m.B.lX1 5 T . =.^.OXx.v.hX2 H c b &.",
"r.7XA.R.&.z M G O :Xx.Z.OXW.*.- d 1 $ 0Xx.Z.Q.z. .& $ c n MXA.8Xx._.%.Z V H o ;XA.c.;X].=.3 T 7 O iXg.z.!.y._ 8 u z i HXx.8Xw.R.",
"MXl B = i _ i. Xx.i.iXO 1 V # >.W.*Xz.n.<XO G l Z 1.~.k.yXt.5Xn w q q ' D.!.0.z.pX2 8 v : *.}.w.e.,X<X8 K n n 4.L.z.x.7XMXj C 9 ",
"~.8.) * H r g MXrXv.e.K.$.N ~ J o >X8Xt.k.].*.H a 5 3 qXN.N.Q.y.| K = i g NXv.9Xt.(.h 3.C D . #Xt.w.;X`.:.+ n * 1 iXb.m.~.m.=.+ ",
"e.v.0X$ I l O =.].z.i.tX:X< _ j x ,._.x.n.7X5Xn Q ; 8 _ 8.Q.e.r.qXK   h 8 *.].OXv.v.&XP J V d #.(.l.8Xu.NXE V + 7 | e.!.p.i.lX1 ",
"*.9 V $ 9 qXv.G.~.0.` 9 X T n MXZ.uX6.E.%.Z V D o @XD.t.bXz.*.2 z $ 1 AXD.b.g.R._ 8 9 c t jXm.ZXx.r.$.j l J 2 GXx.t.-X'.;.& C 8 ",
"(.>Xg.c.@Xo J C x 1.R.G.8Xc.NXm a 7 2 I t. Xv.t.iXo y g O -.'.V.t.8X&X- J x z 1.XXz.e.7XMXj c $ + | g.~.8.x.pXo . C 5 >.}.c.i.rX",
"o.J F rXr.:Xr./.;.K x $ * pX-Xm.Q.u.6 :.5 B v MXi.tXr._.l 4.k D 2 <Xr.x.-X(.:.3 l $ 3 0Xw.x.~.i.;.7 0 x t MX%Xm.k.W.3.Z N J o ;X",
"4.:.FXOXa.9.xX0 K O I $.8.Y.7XM.=X& t z Q / ^.C.a.r.iXz ; I V  .L.z.e.tXcX. K F $ O.r.W.t.u.dX7 f U d ' (.*Xi.B.>XC I 2 f *.E.b.",
"< 5XN.e.bX7.-.x o % c JXt.j.Z.].[ d t n X jXc.7X(.8.o.X 9 K A cXm.e.;XT.-.f 2 . ~ $X8Xr.g.).' x n E & eXi.b.T.r.@.u o ` $ nXb.8X",
"F 8 @ 1.R.v.uXS.MX8 h n N | t.~.e.G.pXi 9 < b >.P.m.w.wX3X6 K 9 - @.r.W.S.c.dX5 z r M | '.4Xg.m.3Xs 6 > m *.e.E.eXz.>X% D 9 & $.",
"t.oX/.6.3.# 6 D # nX6.8Xv.(.:.g 1 . Z #Xq.9.=X}. .B l x @ dXx.x.R.h.#.& o K O 2XB.8XZ.`.-.h * q m $Xc.l.HXz.| B r a 6 DXv.w.S.Y.",
"eX7 V b g *.'.Z.i.8XxXc & < W -.8.bXw.u.,X1 G - U &.R.v.8Xm.5X* x w W ( x.~.t.t.iXk % P f >.E.N.e.<X3X= G K # O.z.T.r.N.dX< c U ",
"A.'...f x j 7 jXb.uXW.6.O.@ 8 F J xXt.x.@XL. .x = * ~ qXm.v.C.^.| m a W . 5Xn.6XE.9.$.o @ ` % cXv.e.;XW.-.d 0 S B ,XtXe.Z.`.| b ",
"r.i.JXY $ O f *.6.W.i.7X=X7 A 2 > $.R.b.q.D.DX9 x e g } 8.mXu.G.$Xj * . f -.L.r.8XZ.2X6 K * ; O.z.Y.g.y.fXX Z c d / (.Z.C.yX@Xw ",
":.T 3 6 f pXB.b.Z.}.] g k Z % 5Xz.6XE.h.@.& $ J 7 vXb.z.5XE. .d 7 % c pXr.y.F.`.` M l z # =Xt.7XXXm.%.# 9 H % 2Xi.d.OXT.=.g + + ",
"KXOXr.n.cX3.T * K Z H.E.rXb.<X;.F # 9 ; XXv.w.g.DX9 { c g l Z.!.c.&X%XV x # =.Q W.w.v.x.AXp S 1 ; :.OXT.v.Z.>X% < r b 2.].wX6.v.",
"y Q j >Xv.z.NXn.$.C x P 2 3Xh.i.z.VX_ - Y J - 0Xx.j.E.c.,.H K m n 2X7Xj.f.'.,.r ~ O * pXC.9.z./.| D $ S = &Xt.tXP.w.1.' * r c 2X",
"J &._.t.rXt.vX; I % 8 { t.R.j.Z.qXK 9 v c #.R.4Xj.z.vX~ n X K $.x.I.7Xc.#XK S + 9 I _.0.k.g.lX9 2 c b $.).V.k.rXNXr r . F &.m.E.",
"O 0Xx.z.|.v.#.H . l N 3XrXs.d.E.%.l C = 7 iXd.G.T.N.I 0 X S X 2Xx.kX8.xX..H $ j Z >Xh.l.ZXz.%.x r 1 5 bXJ.6.9.VX .1 5 S 7 fXB.j.",
"A # 2 ' VXg.z.Z.:X% 9 v C 1.).kXl.b.2Xv T - H #.G.P.7Xt.,Xu S 8 * _ }.b.k.Z.iX= 3 T B ,.}.f.8.rXvXv l # K 4.i.I.c.i.0Xq S O % *.",
"C.r.w.BX) 0 S S * iXr.k.T.z.&.J J t n vX+XN.h.L.@.l Q . i iXC.m.N.].' K   S 7 @Xz.rXK.x.&.' . r C cXx.x.*X`.4.v j < 9 %XsXx.e.`.",
"3X2 P s Z #.(.=Xi.u.cXt Q $ K 1.i.T.rXr.>X+ ) & 8 ( '.i.x.Z.AXI o z C @.p.!.8.rX:XQ k O G &.R.i.k.v.AXD S % * I b.I.j.sXhX3 2 r ",
"_  .l t C > 6 aXC.S.w.`.) & & A 6 $Xc.wX/.r.<.J = l c cXZ.x.4X(.@.j l 8 0 qXJ.r.e.].} + X S 1 5Xv.tXI.i.1.J 6 l T NXc.x.*X).1.z ",
"KX#Xr.:.w 7 L T nXl.s.<Xp.- 4.l . o [.s.<Xr.ZX<.+ O l - p.HXu.b.3X$ $  .k T |.z.v.7X3X3 I T o ( hXK.i.0.=Xf 8 $ r ` }.wXw.x.2X% ",
",.h U . & >X%Xv.S.'.[ W u o ^ dXe.b.T.n.[ I a E * nXr.tXr.).<.Q : # 9 :X9.c.mXe.*.t 0 5 V DXu.e.x./.=.1 M R % ,Xi.8XK.x.4.m 8 # ",
"/.j.m.6XcX3 Q W o I u.P.t.b.dXd 5 F l _ ].g.w.+X>X+ K 9 j <.).8.v.6XvX0 @.B 9 ] x.T.r.t.dX~ q 1 t } '.*Xe.e.;XU 5 ; m <.(.9.7Xp.",
"c E 3 nX=Xz.0._.<.N 6 7 & >XkXr.Z.'.( b X 5 k eXh.9.P.w.' 2 b Q * NX6Xw.j.'.<.l . # 9 gX&Xy.g.`.] g = < T zXe.n.Y.z._ , l R K nX",
". I y.K.G.t.dXV   6 d | '.f.S.7X,X, 9 q k <.Y.e.g.7X3X+ E j . ' n.|.u.w.dXc O u l [ _.jXb.q.,X: 3 * t <.XXr.7Xi.cX7 ! f 9 P D.T.",
"r DXq.v.r.(.( D r U p :Xm.tXL.v.<.Q , $ ; cXe.k.*X'.;.w @ % l dXp.t.I.x.;.O v E 6 2X%Xv.b.).4.L 6 1 q >X<Xr.Z.}.` e - X B eXw.c.",
"6 q U ) x.mXz.b.,X. 5 J r <.E.r.8Xr.2X2 ! ~ > ( z.Y.e.e.dXx : H z ' `.*Xe.y.>X# D 6 j 3._.x.rXy.xX3 O.a 3 | z.R.v.b.dXo.; u l ( ",
"hXv.*X).` m 9 $ n dXG.y.K.m.[ o a ! 1 5Xi.tX7.`.<.n * 3 ; hXr.t.mXi./ j 2 7 Z zXi.r.j.E.I o x R K ,Xu.8XP.v.<.b 7 : P 3Xx.x.*X]."
};
