/* XPM */
static char *c7265020b95245fcb5750c81bdeaee86z3QlLpY6fiBK5JGq[] = {
/* columns rows colors chars-per-pixel */
"64 64 149 2 ",
"   c #00FFD8",
".  c #2AFFD8",
"X  c #33FFD8",
"o  c #38FFD8",
"O  c #00E9E9",
"+  c #00FFE7",
"@  c #00FFED",
"#  c #16FFEE",
"$  c #00E7FF",
"%  c #00EDFF",
"&  c #00FFF3",
"*  c #00F3FF",
"=  c #00FFFF",
"-  c #16FFFF",
";  c #32FFEE",
":  c #34EDFF",
">  c #2FF4FF",
",  c #27FFFF",
"<  c #2CFFFF",
"1  c #31FFF4",
"2  c #34F2FF",
"3  c #3BF3FF",
"4  c #34FFFF",
"5  c #3BFFFF",
"6  c #43FFD8",
"7  c #4CFFD8",
"8  c #55FFD8",
"9  c #5DFFD8",
"0  c #64FFD8",
"q  c #6CFFD8",
"w  c #71FFD8",
"e  c #7AFFD8",
"r  c #43E9E5",
"t  c #44FFED",
"y  c #4CFFEE",
"u  c #52FFED",
"i  c #5AFFE9",
"p  c #45EDFF",
"a  c #4CEDFF",
"s  c #53EEFF",
"d  c #5EEDFF",
"f  c #45FFF2",
"g  c #4BFFF2",
"h  c #45F5FF",
"j  c #4BF3FF",
"k  c #45FFFF",
"l  c #4CFFFF",
"z  c #53FFF4",
"x  c #53F2FF",
"c  c #5CF0FF",
"v  c #53FFFF",
"b  c #5CFFFF",
"n  c #63FFEE",
"m  c #70FFEE",
"M  c #7CFFEE",
"N  c #62EEFF",
"B  c #7DEEFF",
"V  c #63FFFF",
"C  c #6BFFFF",
"Z  c #74FFF2",
"A  c #7FFFF4",
"S  c #70F0FF",
"D  c #73FFFF",
"F  c #7CFFFF",
"G  c #85FFD8",
"H  c #8CFFD8",
"J  c #93FFD8",
"K  c #9BFFD8",
"L  c #A2FFD8",
"P  c #ACFFD8",
"I  c #B6FFD8",
"U  c #BCFFD8",
"Y  c #84FFEE",
"T  c #8BFFEE",
"R  c #94FFED",
"E  c #9AFFEE",
"W  c #83EEFF",
"Q  c #8CEDFF",
"!  c #94EDFF",
"~  c #9AEDFF",
"^  c #8CFFF3",
"/  c #86F2FF",
"(  c #8BF2FF",
")  c #84FFFF",
"_  c #8CFFFF",
"`  c #94FFF2",
"'  c #9DFFF2",
"]  c #94F3FF",
"[  c #9AF2FF",
"{  c #94FFFF",
"}  c #98FFFF",
"|  c #9AFFFF",
" . c #9EFFFF",
".. c #A9FFEE",
"X. c #B2FFEF",
"o. c #BAFFEE",
"O. c #A4EFFF",
"+. c #A8EDFF",
"@. c #A2FFF5",
"#. c #A8FFF1",
"$. c #ADFFF6",
"%. c #A2F3FF",
"&. c #ABF1FF",
"*. c #A3FFFF",
"=. c #AAFFFF",
"-. c #AFFFFF",
";. c #B6FFF3",
":. c #B2FFF6",
">. c #B5F2FF",
",. c #B9F0FF",
"<. c #B7FFF9",
"1. c #B2FFFF",
"2. c #B4FFFF",
"3. c #BBFFFF",
"4. c #BEFFFF",
"5. c #C3FFD8",
"6. c #D7FFD8",
"7. c #DCFFD8",
"8. c #E4FFD8",
"9. c #FFFFD8",
"0. c #C1E9E2",
"q. c #C3FFEE",
"w. c #D0FFEE",
"e. c #DEFFEE",
"r. c #C5EEFF",
"t. c #D3EFFF",
"y. c #C3FFFF",
"u. c #C6FFFF",
"i. c #CBFFFF",
"p. c #D9F2FF",
"a. c #DCF7FF",
"s. c #D1FFFF",
"d. c #D4FFFF",
"f. c #E7FFEC",
"g. c #FFFFEC",
"h. c #FFECFF",
"j. c #FFEFFF",
"k. c #E0FFF1",
"l. c #E1F4FF",
"z. c #E3FFFF",
"x. c #ECFFFF",
"c. c #FFFFF2",
"v. c #FFF2FF",
"b. c #FFF4FF",
"n. c #F0FFFA",
"m. c #F2FFFF",
"M. c #F4FFFF",
"N. c #FFFFF9",
"B. c white",
/* pixels */
"s.] = = * k % = Y 3 = C = y 3 = : *.& = < p = V x k * = & a = = k ` $ C % l & = k h = z * k % = @ B = = C g * V * k + = = j = D ",
"* k % = & p = , = u * V % k @ = = Q = k % k * = + h = = = f % F * } @ = = p = k * k * = & p = = = ` % V * k @ = = p = l * k % = ",
"& Q = = = g % C % v & = = s = D * v * = & s = < = u % v % b & = = ! = g * k % = @ j = = = i * b % -.& = = s = v % v % = & d = = ",
"= R % C * b & = = a = v % v % = & ! = = = z % C * V @ = = x = D * b * = & j = < = f * V % v @ = = ,.= k % k * = + a = = = y * D ",
"* u.& = = x = z * v % = & s = = = X.* C * v & = = a = g * k % = @ &.= = = g * b * b & = = a = A * l * = & x = 4 = g * b % l + = ",
"= r.= v % v * = & d = = = z % C * M.+ = = a = v * l * = & s = = = f.* V % b & = = d = l * b % = & t.= = = t * V * v @ 4 = x = _ ",
"* v * 5 @ s = k = g *  .* b & = = a.= v * l % k @ a = = = u % *.% m.& = = j = v % b % V & p = = = k.* 4.* v & = = s = f * l % V ",
"@ p.= = = u * 1.* b & = = p = ` % k * b @ j = v = z % 1.* v & = = l.= l * v * C @ c = = = g * 4.* x.@ = = x = k * v * D & N = ) ",
"j.B.% 5 Z / = _ 5 R * k S _ 1 = = b.= :.>._ * = ; [ = k *.T * V % B.& = } [ = <.* ) % = @ ] = b V c.% C * { @ = = [ = ;.% _ % = ",
"@ j.= k = ' % C % _ @ = = ~ = N.% { * = @ ] = =.= E * V % _ & l = v.= g % } * 4 & [ = = = ` % -.* B.& = = [ = ' % } % = @ Q = v ",
"= g.% C % } & = = Q = =.%  .% = & v.= k = R % b * _ & = = / = N.% } * = + Q = } = R * D % F & = = v.= $.* } * = @ W = k = ' % C ",
"% B.+ = = ] = u.% } * = & B = v = g.* b * } + = = +.= 4.% _ % = & j.= v = R * C %  .& = = ! = c.% _ * = @ ( = } = R % C % ) @ k ",
"= j.= z % { * < @ / = = = ^ % u.* B.& = = %.= ' * } * = & ! = k = g.* F * _ @ = = [ = :.* } * = @ j.= k = T * C % ) & = = %.= N.",
"* *.% = + %.= =.= ^ * C * } @ v = j.= r * _ * 4 & ( = = = ^ % y.* B.& @ = Q = } % _ * O & ] = l = c.* V * _ @ = = [ = @.% _ % = ",
"& v.= k = @.* C *  .& = = [ = n.* _ * = & ] = } = ^ % b * _ @ = = v.= :.% _ % = @ Q = l = M % Z % B.@ = = Q = 0.* _ % = + ] = l ",
"= c.* C * { & & = ] = #.* { * O & b.= k = ` % V * } & = = [ = N.%  .* = @ ( = { = ^ * D * { + k = j.= v * _ % 5 @ Q = = = q.* z.",
"g.j.= i._ E * < : } & = } O.4 c.% } * = n / =  .} ` * V j } @ *.v ] = z s _ * ) & %.= = V ^ % 2.* B.& = = [ = 3.* F % = @ ] = C ",
"= c.% C % *.& = = O.= 1.% ) * - @ v.= v = ^ * ) % _ & = = ( = N.* _ % = + B = -.= ` % V * } & v = j.= l % { * 4 & ! = = = ^ * *.",
"* B.& = = ( = ` % _ % = @ ! = k = c.* C * _ & = = ( = s.*  .% = & b.= C = T * b % } & = = Q = g.* { * - & ] = } = Y * F * } & l ",
"= v.= g * _ % 4 & Q = - = ' % y.* B.@ = = B = ' % } * = & ] = v = c.% V %  .  = = ! = I * _ % =   v.= v = K % C % }   = = ] = g.",
"% } % =   ( = B.= H * = * _   } = j.=   * F * V   / = C = J * C % B.  l = Q =   * } * C   ] = F = 9.* l * _   b = / =   % ) * C ",
"  j.= V = J * k % *.  v = ] = 7 * _ % C   Q = -.= H * l % }   k = v.= # % _ % C   Q = D = J * v $ B.  k = ( =   * } % D   / = C ",
"= 9.* V % *.  k = ~ =   * ) % C   v.= ) = J % k % }   k = Q = 8 * _ * V   Q = 2.= K % v % }   l = v.=   * _ % b   ( = V = J * k ",
"* B.  l = ( = # * } % C   / = _ = 9.* k * {   v = ] =   % { * F   v.= V = G * V % }   k = [ = 9 * { * V   W = z.= G * l % y.  -.",
"B.B.* i.o { = 5 ) K = - p  .X B.k ( =   V _ * } e _ = C v H = } x {   b v [ = G = _ * = w _ = u.= 9.= = * _   } = ] =   =  .% l ",
"  B.= C = H = = * *.  -.= ] = # = B.* v   _ = _ = L = = * }   B.= ] =   = } * y.  ) = V = H = b * B.  v = ] = X = { * =   ) = y.",
"= 9.= = =  .  -.= { =   = } = l   B.= V = G = = * }   3.= W =   = B.* l   } = V = K = = * }   B.= %.= # = } * _   _ = _ = J = k ",
"* B.  l = ( = X = { * -   ) = 3.= 9.= - * _   _ = ] =   = } * b   B.= _ = H = = * }   d.= ] =   = B.* v   ) = V = H = = * }   B.",
"= ] =   = _ % =.  _ = V = H = l % B.  k = Q = u = } * =   =.= i.= 9.= = * )   ) = ] =   = -.* D   B.= V = H = - * {   3.= [ =   ",
"= B.* v   _ = ) = H = = * _   B.= [ =   = _ * =.  } = C = J = l * B.  k = ] = X = } % =   ) = 2.= 9.= = * {   *.= ( = # = *.* k ",
"  B.= ) = J = = *  .  4.= F =   = B.* V   { = C = H = - * _   B.= ] =   = } * *.  ) = F = K = v * B.  V = / = . = { * =   } = y.",
"= 9.= = * }   _ = ( =   = } * k   B.= D = J = = * )   =.= ) = # = B.* k    .= F = G = = * }   B.= Q =   = *.* y.  } = V = 5.= y.",
"9.j.= y.) L * 5 4 _   - *.} 4 8.% B.= = 9 ] = l } J % F v )   = l B.= w.s _ = =   / = v C J % V = B.  - = _ = I * } = -   ! = l ",
"= 9.* V = }   = = _ = I * } = =   v.= k = K * C = _   = = _ = 9.% ) = =   ( = } = L * V = }   V = B.= 7 * _ = 4   [ = = = J * d.",
"= B.  = = _ = ..* } = =   ! = l = 9.% b = )   - = _ = P % } = -   v.= v = J * D = }   = = } = 9.% ) = =   O.= z.= K * = = _   } ",
"= B.=   * _ = 4   ! = b = J * k = B.  b = _ = 7 % { = =   Q = 2.= 9.% - = )   k = _ = Y % } = =   v.= -.= H % = = {   V = ) = U ",
"% ) = -   ( = B.= K % = = _   { = B.=   % _ = <   W = V = J % l = B.  k = } = 7 * _ = =   [ = =.= 9.* = = _   V = _ = 9 * ) = = ",
"  v.= 1.= K % - = )   k = } = e.* } = =   ( = B.= K % = = _   *.= B.=   * _ = k   ] = C = J % k = B.  k = } = 8 * *.= =   B = =.",
"= 9.* = = _   5 = { = q % ) = =   v.= 3.= H % = = {   V = } = U %  .= =   ! = B.= K * - = }   } = B.= # * F = 5   [ = D = L % b ",
"= B.  b = } = 8 * } = -   ~ = -.= 9.% = = )   l = _ = 0 * } = =   v.= =.= K * = = _   v = _ = I % _ = =   Q = M.= K * = = u.  u.",
"b.B.= b e ( = V C L % k _ { X = = B.= I ( { = = 7 ! = k F L % C k B.  - b { = 5.% } = =   W = v C 9.* _ =  .  = = { = q.% _ = = ",
"  v.= k = G % V = {   - = } = 9.% _ = -   W = *.= K * v = }   v = B.= 6 * } = 4   / = = = H * 3.= B.  = = D = K * { = =   ~ = v ",
"= 9.* V = {   - = ) = 5.% _ = =   v.= l = J % F = )   = = } = g.* } = =   ( = } = J * C = _   V = B.= 7 * } = k   ~ = = = J * 2.",
"= B.  = = } = J * { = =   ! = k = 9.% D = _   = = { = P * ) = =   v.= l = K * D =  .  - = _ = 9.* _ = =   W =  .= J * ) = {   l ",
"= B.= n % { = 4   [ = = = K % 3.= B.  - = } = K * } = -   ] = k = 9.% V = _   = = _ = U * _ = =   j.= l = L % V = _   = = ) = 9.",
"* } = =   ~ =  .= J % D = )   b = B.= 7 * _ = <   ] = = = L % u.= B.  = = } = ..* ) = =   ~ = k = 9.% C = _   - = _ = P * F = - ",
"  j.= l = J % b = )   = = _ = 9.% } = =   ( = *.= J % V = _   l = B.= 7 * { = 4   [ = = = L * y.= B.  - = { = J * { = =   Q = l ",
"= 9.* ) = _   = = } = q.*  .= =   j.= k = J * V = )   - = _ = 9.* { = -   Q =  .= K % C = )   5 = B.= 6 %  .= 5   ] = = = 7.% z.",
"B.B.= U ( { = - e Q = *.4 L 2 k 3.{   v 4 _ = 0 ] B.= =   ! = 3.4 H * = C _   k = B.= 0 d _ = =   [ = 4.= J * = = B.  C = ) = 0 ",
"% } = =   ! = 2.= 9.% - = )   l = { = m * ) = =   v.= 4.= K * = = {   V = { = K % } = -   Q = B.= H * = = }   } = B.=   % _ = 4 ",
"  Q = C = K % l = B.  v = F = 8 * _ = =   Q = *.= 9.% = = }   C = } = q % _ = =   v.= 3.= K * - = }   k = } = o.* } = =   Q = B.",
"= J % = = _   2.= B.=   % } = 5   ! = V = K * v = B.  b = } = 7 % { = =   ~ = -.= 9.% = = }   v = _ = 0 % _ = =   v.= 2.= H * = ",
"= _   b = ) = U % ) = =   / = B.= L % - = _   =.= B.= # % } = 4   ~ = V = H % l = B.  V = _ = 8 *  .= -   ( = u.= 9.* = = )   v ",
"= } = 9 % *.= =   j.= 1.= H * = = _   k = _ = U % } = =   ~ = B.= P % = = _   4.= B.=   * ) = 5   ] = D = L * C = B.  k = _ = n ",
"% } = =   B = 2.= 9.* = = {   b = } = 0 * _ = -   v.= u.= J % = = F   v = _ = U % _ = =   ! = B.= J * = = }   4.= B.=   % _ = 4 ",
"  [ = C = J * k = B.  V = { = 7 % _ = =   ( = y.= 9.% - = }   b = _ = M * _ = =   b.= y.= K % = = }   V =  .= P % _ = -   %.= M.",
"9.B.  ) C H 5 n x {   5 6.[ = P 5 J > b 7 }   C = 9.= 7 p {   - 7 [ = P 4 J % = q B.  *.= J =   j }   l   ~ = 0 = 9.% v    .  b ",
"= G =   % }   -.  ! = M = J * =.  {   C = H =   * B.  C   [ = w = K % V   _   k = 9.= # % )   D   ] = w = J % v   B.  V = K =   ",
"* _   F   ] = q = 9.* l   _   v = K =   % _   2.  %.= 9 = K * *.   .  b = G =   * B.  V   ! = Y = G * v    .  b = 9.=   * }   b ",
"  W = q = K * b   B.  l = H = # % _   V   ( = q = 9.* k   _   V = G =   * )   y.  Q = q = L % }   }   b = G =   * B.  V   [ = 0 ",
"= J * k   {   k = 9.=   *  .  b   ( = Y = K * v   B.  b = H =   % {   F   B = 0 = 9.* b   )   k = H = # % {   -.  ] = 0 = J * } ",
"  )   C = H =   * B.  _   Q = e = K * v   _   k = 9.=   *  .  C   Q = q = L * l   B.  l = H =   * _   C   Q = M = 9.* v   )   b ",
"= J =   * _   -.  [ = q = K * 2.  {   l = K = # * B.  V   ] = 0 = K % k   }   b = 9.=   * }   D   ~ = 9 = K % l   B.  k = J =   ",
"%  .  V   ~ = q = 9.* v   {   k = G =   * }   u.  Q = Y = J %  .  _   D = H =   * B.  V   [ = 0 = H * C   }   l = 9.= # % 1.  } "
};
