/* XPM */
static char *f4f2025090f74233c3736e2597baa9c2HG2qVu3s6aOhzVZr[] = {
/* columns rows colors chars-per-pixel */
"64 64 101 2 ",
"   c #172600",
".  c #1B2500",
"X  c #172F00",
"o  c #1B2D00",
"O  c #153500",
"+  c #1B3500",
"@  c #153C00",
"#  c #1B3B00",
"$  c #203400",
"%  c #203B00",
"&  c #142D28",
"*  c #1B2B28",
"=  c #163528",
"-  c #1B3428",
";  c #153B28",
":  c #1B3B28",
">  c #203428",
",  c #213C28",
"<  c #164200",
"1  c #1B4200",
"2  c #164900",
"3  c #194B00",
"4  c #165600",
"5  c #1B5600",
"6  c #165D00",
"7  c #1B5C00",
"8  c #214200",
"9  c #205700",
"0  c #215C00",
"q  c #156300",
"w  c #1B6400",
"e  c #166A00",
"r  c #1B6A00",
"t  c #167000",
"y  c #1A7100",
"u  c #216300",
"i  c #216B00",
"p  c #174128",
"a  c #1B4228",
"s  c #1F4828",
"d  c #204828",
"f  c #1A7428",
"g  c #167D28",
"h  c #154D50",
"j  c #1B4F50",
"k  c #145650",
"l  c #1A5550",
"z  c #155D50",
"x  c #1B5D50",
"c  c #205D50",
"v  c #166450",
"b  c #1B6450",
"n  c #156A50",
"m  c #1B6A50",
"M  c #167650",
"N  c #1B7350",
"B  c #167E50",
"V  c #1A7E50",
"C  c #216450",
"Z  c #206C50",
"A  c #158528",
"S  c #1B8528",
"D  c #168B28",
"F  c #1B8C28",
"G  c #159228",
"H  c #1B9228",
"J  c #159B28",
"K  c #1B9928",
"L  c #208428",
"P  c #218A28",
"I  c #219028",
"U  c #158550",
"Y  c #1B8550",
"T  c #1E8550",
"R  c #128A50",
"E  c #138A50",
"W  c #168950",
"Q  c #168D50",
"!  c #1A8850",
"~  c #188A50",
"^  c #1E8B50",
"/  c #1B8D50",
"(  c #1C8C50",
")  c #149050",
"_  c #169050",
"`  c #159350",
"'  c #179450",
"]  c #199250",
"[  c #1C9250",
"{  c #199450",
"}  c #1B9550",
"|  c #159950",
" . c #199850",
".. c #1D9950",
"X. c #208550",
"o. c #218B50",
"O. c #218C50",
"+. c #248E50",
"@. c #209050",
"#. c #209450",
"$. c #209850",
/* pixels */
"5 * M N   j M f . l N 3   N N 3 & N N o h N S   l Y 4 + Y B 7 - ! ! + n ! F 1 b / w # [ [ r = O./ $ C ( F 1 b ( q 1 { W y ; ( { ",
"q <  .( w = E ( # b / A < b ^ 6 # / W 0 = ( Q # n X.S @ b ( w # / _ q - U E # m [ S @ b { 5 @ / Q w p ] ( + v ! A + m ( w 1 ^ % ",
"_ r a T ! + b ! H # x Q 7 < / _ 6 : ( F # b @.q # V ! e &  .[ # b Q F # l ! q # Y ] e - ] ! # n V F + b Q w # ] / e = U ] # / b ",
"b { e : ^ / 1 x T F + Z _ w @ ! ..q = ] W O m ^ F # l [ 7 1 o./ w = ! ^ % b ! H # n / w # T ! q - W _ 2 N ! S @ n T q # ^ m e ! ",
"1 ( / ! X z ! H # m ..6 1 #.' w s ! ! # n / F + N ! q 1 ! ^ 9 :  .+.+ z ( H # m ( 6 % / ( w ; / [ 1 b X.A # b [ 7 # W _ ^ ^ ; G ",
"F 1 W ! Q { @ b ! D 1 v E w 1 T / w = Y [ # m ! F @ b o.7 1 Q ] r ; ! ^ # b B D 1 n ( 6 1 ] ! w ; ! / O n V F # m ^ w w w S E 2 ",
"( w $ p = # x Y K @ m ( q # E  .5 ; ^ Q # b Y S < b ] 7 @ ] ] w - U [ @ x ! F O m ^ 7 # / ] w - ! W 8 m ! F + b _ w # , : < / m ",
"b / 6 w q ^ ( ] + m T F # x W 6 8 ^ [ r ; { ^ < n T I + x Q 6 @ U X.w - _ / + b / A # b Q w % ^ / 7 : ^ T # m ! D 1 [ ( ^ C # / ",
"@ b _ { / / = { < n W G # l ] w # W ! w : U U # b ( A # x { q 1 / U r : T W 1 n ^ G + v o.6 < ! / w = @./ + n X.< ] ! ! / Q n w ",
"/ # v W ^ ; r ^ w # Q _ e - / | 1 z W G < m E w + T ] w = { T < b Q F @ x U w # ! ] w : ] ! # b ! S # m T 7 < F x ( w + @ 6 ! # ",
"O.D # # # 7 [ ; o.r : o.U 1 m T H + n ' w 1 ] T w a W Q # b ! H @ b W w # E ^ q : / { + m ^ F 1 x ( w @ ^ ! ! # Q 0 p C n # D ] ",
"= U S w w W ! w b Q D # m W u + ! ] r = [ [ 8 m ( L # b / w + E [ r : Y / @ b ( G + b V q + Q ] q ; Q U # r ! b 7 *  .T T Y # Q ",
"w b V W ( ^ % Y # @.o.W S + m / w 1 ] W w : ^ O.$ b ( F # b { w + _ U 6 : [ ' + m ! F % m E 7 # Q O.r - m * w { + ] / F F ] n q ",
"T # z C x @ r ! G @ b b : ! [ # b ! A + c _ 6 + ! ! 6 = ! _ # x ( F 1 m T 6 + Q ( w - ( ] + b ! G # m ! V { , q Q / 1 @ @ r U = ",
"U W 1 < # 6 _ @ T w @ o w U q ; T ! # m ! F # b ] r # ( ! w - ] Y # m _ F + b / 7 1 _ X.w - U Q # b / / D / X.O @.# n ] l = 6 ] ",
"1 T / H S ^ m 6 n ! ^ O.] _ % n W P 1 v ! 6 @ _ Q 6 : ] ! # l o.F @ m [ 7 # ! Q 6 : X.! # b ! P @ E 7 1 # @ { / e b ! U _ _ # ! ",
"w : ^ ^ ! b 1 [ @ b T ^ ! + E : ! D @ z o.w # ] / w ; ( ! # x U D < m Q 4 8 ] { q ; ! ..1 m E S N F # z v m # ! : Y D r w ( ] @ ",
"/ w = m n # S b Q < : : + 6 W u b / q @ O.( q : ! E # b T S # v W w @ / Q 7 ; [ Q # b ! G # C @ ( + W Y W ! k 6 ( D @ = # # Q m ",
"b W w % < H ] # ] D 6 r w ] a / + b V A 1 b ] 6 @ O./ w ; ] { @ m W F # m ( w + _ / q = ( ^ W m 6 x ! F q I ! - ^ @ m { T m q ] ",
"1 { / / / ^ b F - / ! ( / l 0 Q F 1 # b ] w + / | w & ! ] + b Y H 1 b W w # _ ] q p U / % @ 7 Y + / r # @ @ S / # l [ / Q E = S ",
"H < { ] ] n # T w b ] ] x # / + U ^ H W # b o.G % b ! u $ { ^ q = ! ^ @ m U F # b W w O m b < q ! q : C o.b # ( m _ w # w P W # ",
"/ 4 @ = : # T z ( + # # # D W w x ] ! ! n ..w 1 ^ Y r = / T @ m ( G $ n ! w 3 ( / q = / [ U O.# W # ] [ W ..b # / 6 1 b ; O T x ",
"l ^ w e w  .! < ( W q 7 J ! # ! # - n ; # W # n ! H # l ! w # [ Q r - { / 1 b T D @ Q / F G / Q w  .{ 7 7 0 X.b A 1 { ! [ b # ^ ",
"< N ( [ ^ / : ( @ W / ^ ^ b 7 b Q w + w H ^ < m X.F # b ] 4 # E / 6 : T ! # b Q H n / y O + i { - ! O # ; # 4 { # _ _ D [ X.m w ",
"V # x / ^ : r Q w a x b b @ { # ^ U ' ! Y = T % U [ r : [ / 1 x ^ S < b O.w # W < Q # - x b : t _ w m T W / # G m | r # 1 5 W 1 ",
"( S 3 # # r E : ( q # @ 1 ! b S = ' / ! C q W q # ! ( r - T / O n U F @ x E w ! n 5 m W Q ! ( - [ * ! U / { T # ] r ; b b @ F / ",
"= Y F 6 w [ ( u m { S S _ X.% W 0 # ; # < ! - ! 4 < b T F # b ! 6 1 ! ^ w ; 1 w Q # U _ w w T _ + ( F 5 # q _ v 4 : U Q @.{ < { ",
"w C ^ ! [ Y # W + _ O.T ^ : F v ! w e w [ Q q b { ! V # z Y G + x Q 4 1 / ^ O.> 6 ^ S + # + @ / x / # - m = w _ # ( { q G ( x w ",
"T # m b m + 7 Y G # b b : e U # ( W Q / T # [ # x Y ] x ^ r # U T 6 : ( X.] ! _ O ( @ x ! { b < ^ @ x _ W ( - 7 / ! # # # e / - ",
"^ ! + # # w ! # ! r + < w W x W 1 b ! b a 6 W F 3 - = O F 3 b T w +  .U w 1 r ! @.w b ( / ^ / b H x ! ! F / ( < { # n W m : 6 ] ",
"1 T ! S H ! n 3 l U { ^ W ! + ! w # @ # w ( 1 W F 7 w D ] O | X.7 - W + : z a # { ; Q F r r S O.% / 7 # # 1 ! / w b Y [ T ] + _ ",
"7 - / U W z # ! # b E Q T 1 ! : Q F 6 F / v w x ! ^ ^ ( m w n Y 7 ! r b O./ ! b i / 6 + : > + H x S 1 b m m O { - ! S w q E { 1 ",
"{ 6 - x C # D b ( + - > @ w / w x Y  .^ / # ( 1 b Q U C + [ # / # { = ! { D / Q ; _ 1 C _ ^ b # ^ % U ^ T T m 6 { G O = @ < ! m ",
"b ! q 1 @ L ! + Q D q w 7 [ = ^ @ n b k @ F n ( # 1 + < ! b S T x < E S 8 % 1 S ( + T / ( ' T m w v T G w D T : W # m ! / x w X.",
"1 ! ^ ! @.U b F ; ( ] E ' v w ( F o # # 7 O.+ E ! 6 r ] / # F / m % Y # x b m 1 ! b ( 6 + O w ! @ ! e % # # 6 ( # n Y ! ] U s H ",
"F # ! ] @.x # ^ q v ! ! b + _ # E O.F / ! C G ; ^ ( { [ * e _ { + w ] m / / o.v 1 W 7 # b b # q ! 0 a b ( z + / m _ 5 + w A ! + ",
"W w + = = # o.C W 8 # # @ S ( q v ! V _ b + T e : v b a 5 ! / # q W b # G w F Q b D : _ ] ] W # ^ # ! { ( { ^ # T w # b , + / b ",
"b O.7 w 7 W W 1 [ { 6 6 S / + ! < : m : # ! m ! w # + F / b 1 ( / - w [ ! 1 # u T # ! E G F V E w ! U w q q Y b A @ [ ^ W b o W ",
"# b ] ! U / : Q # Q Q ( U b q m [ w 1 w F W % ] T F _ b 1 ! Y : w ! { # 7 ] b # D v / r + $ w ^ : ' < * : < w T 1 ! ( D ^ ( b w ",
"] # b ^ O.= q ( y a m b b @ Q # ! Q _ W ! : U + ! # w { b 1 D Y b # T ( = w ' X.@ ( + : b z a r ! w n / ] ! > F b ( i O + r ! # ",
"{ S # # # w o.- _ q # # # Q N F ; { T ( n w ! 6 / z @ S W z + W ! : 6 T Q # w Q m 6 b T X.Q W - ! a ^ { X.! E # W 6 = b n @ A { ",
", ( F 7 6 / T q b / H F ( ! # ! 7 # ; + 1 ! a w ! X.# 6 ! b # G W n 1 ! ( : r { ! # { U 7 7 o.' # W S 1 3 7 / b w = / ^ ! / 2 ! ",
"r Z ( / !  .1 Y + / ! ! Q : H C ! 7 q 4 ( ! # 7 / C # S ! v @ T Q = r  .U 1 r Y b 1 D # @ + # W z / 1 N b : + [ # [ ! w G ! x 7 ",
"/ 1 b b m 1 6 ! F 1 n N ; w ! @ ^ ! ] ! Q - q ! O.@ H W k + ( U - 6 / Q # 6 ] z 8 F / m | Q m # V 8 b [ ^ Q Z 7 [ ! O # # w T - ",
"' / # @ + 7 [ # / 7 + # r ] x ! # m W m 1 F W b < ! / - w O.^ + r ( z @ F T b 1 U { - 7 [ ! ! v D b [ P F ( ] # E # b ! l = 6 U ",
"@ ( T H S / c 7 n @.] T ! Q o O.u # # w [ x # F ! b # ^ ! = w ! / 1 r T v 1 g ! v + W ! a 7 F V # Y q @ 1 # F / w x o.( ! ( # T ",
"w : ! U ! k 1 Q # b Q { ! 1 / : ^ P ] m @ _ T : e [ Y 1 w #.b @ A ^ b @ ..Q : r @.] O 6 / C @ L b F # x x x 1 / : Y F q 5 W / + ",
"Q w - b n 1 G m W O : : + 0 ^ w n # D / b # o./ = w ( ! + r ! b # F T v $ / ^ - 0 ( Q 1 7 U b + ! < / ] [ ^ b 6 ( F @ > # @ / x ",
"b { w + # F ( # ! F q w w T a ! ! 1 e ] x # D ! k + ( / ; q T Y # w Q x # F ( b # [ W : 6 ] _ # 4 b ! r 7 F ! - ! 1 m ] ^ b w ( ",
"# T ]  .! U z F = U ^ Q / v u T [ @ 6 { Z # G ! m # U / : w _ ( # q ^ m 2 S ] b O E / : w / o.% 7 ( 6 O # + 7 { + x T { _ ] : S ",
"F + U ! Q m < W r b _ ! b + S ! x @ / / a r ! ( < 7 U m # F ^ v @ ( T : r { U + w #.b # D ! x O W E , U / b + U m ^ w + 7 G ! # ",
"W q + : a + ] b ^ 1 # @ # F E b @ ! W - 7 / @.1 q { b 1 F / n # ' _ : w ( W 1 w / b @ D / b 1 E W - e { _ ] W # ^ w # b - # ! b ",
"n ] 6 w w T ! + / _ 7 6 ( b 1 D o.b < T ^ : 6 ( / < q W n # D ! n # { / = q T ^ 1 w { z O F [ x # Q / : 6 w ! z D # U ! _ v # ! ",
"@ n T E Q W : Q @ W W b + I T b % / V a w [ / # 7 ( b < F ! m # U ! : t ] U # 7 ! m # S / m o ' ] - u [ ] 1 w ( O ! X.G ( ] m w ",
"[ 1 v ! ] = e / w = w / T # 6 _ C # H ^ b 1 ^ ^ > e / O.< 7 W b # A V l + T { = w [ / % 6 / m # S T l # T / : F x ] w + # q T 1 ",
"] F @ @ + q { = o.m @ D Y b 1 ^ ] - w U _ 1 r Y m # F ( b # ( T = w ! ! @ q ! b @ G T x # { W : 7 ^ U # w / b @ ' w d b m @ D _ ",
"= Q F w 7 { [ q ! ( # u E b # D T b # / ^ - w T ! < q ! n o D T c # Y / ; u ! ( # w T b # F Y b # ! ] ; q ! ( + 7 : Q [ ^ { # U ",
"w b U / ( X.% 7 ] m 1 D ! m + ! ( + 4 ^ n # G T n 1 { [ : 7 U W # e ! z # S V Z # Y { * 6 ! ^ + q ] b < F ! x # ( Q o.w G { n w ",
"] # n b l @ w E b 1 H ! v # ! Q : e ^ O.1 0 ] b # F ! m @ U ^ - q E { + 6 [ b + F Q b # ( ^ a w U / # 4 B b # F ! b @ % + q ( : ",
"/ ] # 1 @ F B b # U ! - 7 W ! # 6 ^ n 1 F V m # ! / : w ^ ^ < w / b # F Q b # ^ ! : w ^ O.# w { n 1 S / z 1 T Q a r ^ ( n > q ] ",
"O ^ Y D ( l # ! ] - u / W # w ( b # G ! b O E ^ : w / W # 7 ] x < S ! x # U ] = w ( / # w ] C + F ( x 1 { ! : w [ / 1 u ! / + ! ",
"q ; ( : r ^ _ @ w W x @ F W m 1 ! [ : w ( T 1 7 o.x @ F ! m O W ] : r [ [ + 0 ! n # K Y b % ^ / ; 6 Y / + w { n % F ! n < ! { # ",
"( q E Q @ w ! b + F / c O ! / - e ( ] # 6 T n # G / v 1 T E - w Y ( o 4 ] v @ F O.b @ E ] ; r Q ' @ u Q z 1 F O.m + ^ ( : i T l ",
"n % F ! b % [ ! ; w $./ # q ( n # F ! b # [ ! = w W @.8 w T x @ F T z + _ Q - w O.W # 7 W b 1 G W m + W ! : w ( / < q ! b @ F Q "
};
