/* XPM */
static char *_89a68b6c6434d95fd3c1429fb7d02a8fGhxuOBf1prLVYeT[] = {
/* columns rows colors chars-per-pixel */
"64 64 101 2 ",
"   c black",
".  c #172600",
"X  c #1B2500",
"o  c #172F00",
"O  c #1B2D00",
"+  c #153500",
"@  c #1B3500",
"#  c #153C00",
"$  c #1B3B00",
"%  c #203400",
"&  c #203B00",
"*  c #33002A",
"=  c #36002C",
"-  c #142D28",
";  c #1B2B28",
":  c #163528",
">  c #1B3428",
",  c #153B28",
"<  c #1B3B28",
"1  c #203428",
"2  c #213C28",
"3  c #164200",
"4  c #1B4200",
"5  c #164900",
"6  c #194B00",
"7  c #165600",
"8  c #1B5600",
"9  c #165D00",
"0  c #1B5C00",
"q  c #214200",
"w  c #205700",
"e  c #215C00",
"r  c #156300",
"t  c #1B6400",
"y  c #166A00",
"u  c #1B6A00",
"i  c #167000",
"p  c #1A7100",
"a  c #216300",
"s  c #216B00",
"d  c #174128",
"f  c #1B4228",
"g  c #1F4828",
"h  c #204828",
"j  c #1A7428",
"k  c #7D0067",
"l  c #154D50",
"z  c #1B4F50",
"x  c #145650",
"c  c #1A5550",
"v  c #155D50",
"b  c #1B5D50",
"n  c #205D50",
"m  c #166450",
"M  c #1B6450",
"N  c #156A50",
"B  c #1B6A50",
"V  c #167650",
"C  c #1B7350",
"Z  c #167E50",
"A  c #1A7E50",
"S  c #216450",
"D  c #206C50",
"F  c #158528",
"G  c #1B8528",
"H  c #168B28",
"J  c #1B8C28",
"K  c #159228",
"L  c #1B9228",
"P  c #159B28",
"I  c #1B9928",
"U  c #208428",
"Y  c #218A28",
"T  c #219028",
"R  c #158550",
"E  c #1B8550",
"W  c #1E8550",
"Q  c #138A50",
"!  c #168950",
"~  c #168D50",
"^  c #1A8850",
"/  c #1E8B50",
"(  c #1B8D50",
")  c #1C8C50",
"_  c #169050",
"`  c #179450",
"'  c #199250",
"]  c #1C9250",
"[  c #199450",
"{  c #159950",
"}  c #199850",
"|  c #1D9950",
" . c #208550",
".. c #218B50",
"X. c #218C50",
"o. c #248E50",
"O. c #209050",
"+. c #209450",
"@. c #209850",
"#. c #FF0DD4",
"$. c #FF80E8",
/* pixels */
"8 ; V C . z V j X c C 6 . C C 6 - C C O l C G . c E 7 @ E Z 0 > ^ ^ @ N ^ J 4 M ( t $ ] ] u : X.( % S ) J 4 M ) r 4 [ ! p , ) [ ",
"r 3 } ) t : Q ) $ M ( F 3 M / 9 $ ( ! e : ) ~ $ N  .G # M ) t $ ( _ r > R Q $ B ] G # M [ 8 # ( ~ t d ' ) @ m ^ F @ B ) t 4 / & ",
"_ u f W ^ @ M ^ L $ b ~ 0 3 ( _ 9 < ) J $ M O.r $ A ^ y - } ] $ M ~ J $ c ^ r $ E ' y > ' ^ $ N A J @ M ~ t $ ' ( y : R ' $ ( M ",
"M [ y < / ( 4 b W J @ D _ t # ^ | r : ' ! + B / J $ c ] 0 4 ..( t : ^ / & M ^ L $ N ( t $ W ^ r > ! _ 5 C ^ G # N W r $ / B y ^ ",
"4 ) ( ^ o v ^ L $ B | 9 4 +.` t g ^ ^ $ N ( J @ C ^ r 4 ^ / w < } o.@ v ) L $ B ) 9 & ( ) t , ( ] 4 M  .F $ M ] 0 $ ! _ / / , K ",
"J 4 ! ^ ~ [ # M ^ H 4 m Q t 4 W ( t : E ] $ B ^ J # M ..0 4 ~ ' u , ^ / $ M Z H 4 N ) 9 4 ' ^ t , ^ ( + N A J $ B / t t t G Q 5 ",
") t % d : $ b E I # B ) r $ Q } 8 , / ~ $ M E G 3 M ' 0 # ' ' t > R ] # b ^ J + B / 0 $ ( ' t > ^ ! q B ^ J @ M _ t $ 2 < 3 ( B ",
"M ( 9 t r / ) ' @ B W J $ b ! 9 q / ] u , [ / 3 N W T @ b ~ 9 # R  .t > _ ( @ M ( F $ M ~ t & / ( 0 < / W $ B ^ H 4 ] ) / S $ ( ",
"# M _ [ ( ( : [ 3 N ! K $ c ' t $ ! ^ t < R R $ M ) F $ b [ r 4 ( R u < W ! 4 N / K @ m ..9 3 ^ ( t : O.( @ N  .3 ' ^ ^ ( ~ N t ",
"( $ m ! / , u / t $ ~ _ y > ( { 4 v ! K 3 B Q t @ W ' t : [ W 3 M ~ J # b R t $ ^ ' t < ' ^ $ M ^ G $ B W 0 3 J b ) t @ # 9 ^ $ ",
"X.H $ $ $ 0 ] , ..u < ..R 4 B W L @ N ` t 4 ' W t f ! ~ $ M ^ L # M ! t $ Q / r < ( [ @ B / J 4 b ) t # / ^ ^ $ ~ e d S N $ H ' ",
": R G t t ! ^ t M ~ H $ B ! a @ ^ ' u : ] ] q B ) U $ M ( t     ] u < E ( # M ) K @ M A r @ ~ ' r , ~ R $ u ^ M 0 ; } W W E $ ~ ",
"t M A ! ) / & E $ O...! G @ B ( t 4 ' ! t < / X.% M ) J $   * $.  _ R 9 < ] ` @ B ^ J & B Q 0 $ ~ X.u > B ; t [ @ ' ( J J ' N r ",
"W $ v S b # u ^ K # M M < ^ ] $ M ^ F @ n _ 9 @ ^ ^ 9 : ^   * $.  J 4 B W 9 @ ~ ) t > ) ' @ M ^ K $ B ^ A [ 2 r ~ ( 4 # # u R : ",
"R ! 4 3 $ 9 _ # W t # O t R r , W ^ $ B ^ J $ M ' u $ )   = * $.$.  B _ J @ M ( 0 4 _  .t > R ~ $ M ( ( H (  .+ O.$ N ' c : 9 ' ",
"4 W ( L G / B 9 N ^ / X.' _ & N ! Y 4 m ^ 9 # _ ~ 9 < '   = * $.$.  B ] 0 $ ^ ~ 9 <  .^ $ M ^ Y # Q 0 4 $ # [ ( y M ^ R _ _ $ ^ ",
"t < / / ^ M 4 ] # M W / ^ @ Q < ^ H # v ..t $ ' ( t ,   k = * $.$.$.  ~ 7 q ' [ r , ^ | 4 B Q G C J $ v m B $ ^ < E H u t ) ' # ",
"( t : B N $ G M ~ 3 < < @ 9 ! a M ( r # X.) r < ^ Q $   k = * $.$.$.  ( ~ 0 , ] ~ $ M ^ K $ S # ) @ ! E ! ^ x 9 ) H # : $ $ ~ B ",
"M ! t & 3 L ' $ ' H 9 u t ' f ( @ M A F 4 M ' 9 # X.  k k = * $.$.$.$.  B ) t @ _ ( r : ) / ! B 9 b ^ J r T ^ > / # B [ W B r ' ",
"4 [ ( ( ( / M J > ( ^ ) ( c e ~ J 4 $ M ' t @ ( { t   k k = * $.k $.$.  t $ _ ' r d R ( & # 0 E @ ( u $ # # G ( $ c ] ( ~ Q : G ",
"L 3 [ ' ' N $ W t M ' ' b $ ( @ R / L ! $ M ..K &   k k k = * $.k k $.$.  R J $ M ! t + B M 3 r ^ r < S ..M $ ) B _ t $ t Y ! $ ",
"( 7 # : < $ W v ) @ $ $ $ H ! t b ' ^ ^ N | t 4 /   k k k = * $.k k $.$.  t 6 ) ( r : ( ] R X.$ ! $ ' ] ! | M $ ( 9 4 M , + W b ",
"c / t y t } ^ 3 ) ! r 0 P ^ $ ^ $ > N , $ ! $ N   k k k k = * $.k k k $.$.  M W H # ~ ( J K ( ~ t } [ 0 0 e  .M F 4 [ ^ ] M $ / ",
"3 C ) ] / ( < ) # ! ( / / M 0 M ~ t @ t L / 3 B   k #.k k = * $.k k k $.$.  M ~ L N ( p + @ s [ > ^ + $ , $ 7 [ $ _ _ H ]  .B t ",
"A $ b ( / < u ~ t f b M M # [ $ / R ` ^ E : W   k k #.k k = * $.k k k $.$.$.  ! 3 ~ $ > b M < i _ t B W ! ( $ K B { u $ 4 8 ! 4 ",
") G 6 $ $ u Q < ) r $ # 4 ^ M G : ` ( ^ S r !   k #.#.k k = * $.k k k k $.$.  ^ N 8 B ! ~ ^ ) > ] ; ^ R ( [ W $ ' u , M M # J ( ",
": E J 9 t ] ) a B [ G G _  .& ! e $ , $ 3 ^   k k #.#.#.k = * $.k k k k $.$.$.  ~ $ R _ t t W _ @ ) J 8 $ r _ m 7 < R ~ O.[ 3 [ ",
"t S / ^ ] E $ ! @ _ X.W / < J m ^ t y t ] ~   k k #.#.#.k = * $.k k k $.$.$.$.  9 / G @ $ @ # ( b ( $ > B : t _ $ ) [ r K ) b t ",
"W $ B M B @ 0 E K $ M M < y R $ ) ! ~ ( W   k #.k #.#.#.k = * $.k k k $.$.$.$.$.  ) # b ^ [ M 3 / # b _ ! ) > 0 ( ^ $ $ $ y ( > ",
"/ ^ @ $ $ t ^ $ ^ u @ 3 t ! b ! 4 M ^ M f   k #.#.#.#.#.k = * $.k k k $.$.$.$.$.  t M ) ( / ( M L b ^ ^ J ( ) 3 [ $ N ! B < 9 ' ",
"4 W ^ G L ^ N 6 c R [ / ! ^ @ ^ t $ # $   k k #.#.#.#.#.k = * $.k k $.$.$.$.$.$.$.  ~ J u u G X.& ( 0 $ $ 4 ^ ( t M E ] W ' @ _ ",
"0 > ( R ! v $ ^ $ M Q ~ W 4 ^ < ~ J 9 J   k k k #.#.#.#.k = = $.k k $.$.$.$.$.$.$.  9 @ < 1 @ L b G 4 M B B + [ > ^ G t r Q [ 4 ",
"[ 9 > b S $ H M ) @ > 1 # t ( t b E }   k k k k #.#.#.#.k = = $.k k $.$.$.$.$.$.$.$.  S _ / M $ / & R / W W B 9 [ K + : # 3 ^ B ",
"M ^ r 4 # U ^ @ ~ H r t 0 ] : / # N M   k k k k k k k = = = * $.$.k k k k k $.$.$.$.  ( ) ` W B t m W K t H W < ! $ B ^ ( b t  .",
"4 ^ / ^ O.R M J , ) ' Q ` m t ) J O $   #.#.#.#.k k k k k k k $.k = = = = k = k k k = 9 @ + t ^ # ^ y & $ $ 9 ) $ N E ^ ' R g L ",
"J $ ^ ' O.b $ / r m ^ ^ M @ _ $ Q X.J   #.#.#.k k k k k k k k $.k = = = = = k = k k   $ M M $ r ^ e f M ) v @ ( B _ 8 @ t F ^ @ ",
"! t @ : : $ ..S ! q $ $ # G ) r m ^ A   #.#.k k #.k k k k k k $.k = = = = = k k = k   _ ' ' ! $ / $ ^ [ ) [ / $ W t $ M 2 @ ( M ",
"M X.0 t 0 ! ! 4 ] [ 9 9 G ( @ ^ 3 < B <   #.k #.k k k k k k * $.k = = = = = = k =   ^ Q K J A Q t ^ R t r r E M F # ] / ! M O ! ",
"$ M ' ^ R ( < ~ $ ~ ~ ) R M r B ] t 4 t   k k #.k k k k k k * $.k = = = = = = k k   ( u @ % t / < ` 3 ; < 3 t W 4 ^ ) H / ) M t ",
"' $ M / X.: r ) p f B M M # ~ $ ^ ~ _ ! ^   k k k k k k k #.* $.k = k k = = = =   ) @ < M v f u ^ t N ( ' ^ 1 J M ) s + @ u ^ $ ",
"[ G $ $ $ t ..> _ r $ $ $ ~ C J , [ W ) N   k k k k k k #.#.* $.k = k k = = = =   9 M W  .~ ! > ^ f / [  .^ Q $ ! 9 : M N # F [ ",
"2 ) J 0 9 ( W r M ( L J ) ^ $ ^ 0 $ , @ 4 ^   k k k k k #.#.* $.k = k k = = =   ^ $ [ R 0 0 ..` $ ! G 4 6 0 ( M t : ( / ^ ( 5 ^ ",
"u D ) ( ^ } 4 E @ ( ^ ^ ~ < L S ^ 0 r 7 ) ^   k k k k #.#.#.* $.k = k k k = =   M 4 H $ # @ $ ! v ( 4 C M < @ ] $ ] ^ t K ^ b 0 ",
"( 4 M M B 4 9 ^ J 4 N C , t ^ # / ^ ' ^ ~ >   k k k k #.#.#.* $.k = k k k = =   q J ( B { ~ B $ A q M ] / ~ D 0 ] ^ + $ $ t W > ",
"` ( $ # @ 0 ] $ ( 0 @ $ u ' b ^ $ B ! B 4 J !   k k #.#.#.#.* $.k = k k k =   4 R [ > 0 ] ^ ^ m H M ] Y J ) ' $ Q $ M ^ c : 9 R ",
"# ) W L G ( n 0 N O.' W ^ ~ O X.a $ $ t ] b $   k k #.#.#.#.* $.k = k k k =   ^ m @ ! ^ f 0 J A $ E r # 4 $ J ( t b ..) ^ ) $ W ",
"t < ^ R ^ x 4 ~ $ M ~ [ ^ 4 ( < / Y ' B # _ W <   k #.#.#.#.* $.k = k k k   < u O.' + 9 ( S # U M J $ b b b 4 ( < E J r 8 ! ( @ ",
"~ t > M N 4 K B ! + < < @ e / t N $ H ( M $ ..(   #.#.#.#.#.* $.k = k k k   / > e ) ~ 4 0 R M @ ^ 3 ( ' ] / M 9 ) J # 1 $ # ( b ",
"M [ t @ $ J ) $ ^ J r t t W f ^ ^ 4 y ' b $ H ^ x   #.#.#.#.* $.k = k k   J ) M $ ] ! < 9 ' _ $ 7 M ^ u 0 J ^ > ^ 4 B ' / M t ) ",
"$ W ' } ^ R v J : R / ~ ( m a W ] # 9 [ D $ K ^ B   #.#.#.#.* $.k = k k   G ' M + Q ( < t ( ..& 0 ) 9 + $ @ 0 [ @ b W [ _ ' < G ",
"J @ R ^ ~ B 3 ! u M _ ^ M @ G ^ b # ( ( f u ^ ) 3 0   #.#.#.* $.k k k   u [ R @ t +.M $ H ^ b + ! Q 2 R ( M @ R B / t @ 0 K ^ $ ",
"! r @ < f @ ' M / 4 $ # $ J Q M # ^ ! > 0 ( O.4 r [   #.#.#.* $.k k k   ) ! 4 t ( M # H ( M 4 Q ! > y [ _ ' ! $ / t $ M > $ ^ M ",
"N ' 9 t t W ^ @ ( _ 0 9 ) M 4 H ..M 3 W / < 9 ) ( 3 r   #.#.* $.k k   ( : r W / 4 t [ v + J ] b $ ~ ( < 9 t ^ v H $ R ^ _ m $ ^ ",
"# N W Q ~ ! < ~ # ! ! M @ T W M & ( A f t ] ( $ 0 ) M   #.#.* $.k k   i ' R $ 0 ^ B $ G ( B O ` ' > a ] ' 4 t ) + ^  .K ) ' B t ",
"] 4 m ^ ' : y ( t : t ( W $ 9 _ S $ L / M 4 / / 1 y ( X.  #.* $.k   A c @ W [ : t ] ( & 9 ( B $ G W c $ W ( < J b ' t @ $ r W 4 ",
"' J # # @ r [ : ..B # H E M 4 / ' > t R _ 4 u E B $ J )   #.* $.k   ^ ^ # r ^ M # K W b $ [ ! < 0 / R $ t ( M # ` t h M B # H _ ",
": ~ J t 0 [ ] r ^ ) $ a Q M $ H W M $ ( / > t W ^ 3 r ^ N   k $.  $ E ( , a ^ ) $ t W M $ J E M $ ^ ' , r ^ ) @ 0 < ~ ] / [ $ R ",
"t M R ( )  .& 0 ' B 4 H ^ B @ ^ ) @ 7 / N $ K W N 4 [ ] < 0     $ y ^ v $ G A D $ E [ ; 9 ^ / @ r ' M 3 J ^ b $ ) ~ ..t K [ N t ",
"' $ N M c # t Q M 4 L ^ m $ ^ ~ < y / X.4 e ' M $ J ^ B # R / > r Q [ @ 9 ] M @ J ~ M $ ) / f t R ( $ 7 Z M $ J ^ M # & @ r ) < ",
"( ' $ 4 # J Z M $ R ^ > 0 ! ^ $ 9 / N 4 J A B $ ^ ( < t / / 3 t ( M $ J ~ M $ / ^ < t / X.$ t [ N 4 G ( v 4 W ~ f u / ) N 1 r ' ",
"+ / E H ) c $ ^ ' > a ( ! $ t ) M $ K ^ M + Q / < t ( ! $ 0 ' b 3 G ^ b $ R ' : t ) ( $ t ' S @ J ) b 4 [ ^ < t ] ( 4 a ^ ( @ ^ ",
"r , ) < u / _ # t ! b # J ! B 4 ^ ] < t ) W 4 0 ..b # J ^ B + ! ' < u ] ] @ e ^ N $ I E M & / ( , 9 E ( @ t [ N & J ^ N 3 ^ [ $ ",
") r Q ~ # t ^ M @ J ( n + ^ ( > y ) ' $ 9 W N $ K ( m 4 W Q > t E ) O 7 ' m # J X.M # Q ' , u ~ ` # a ~ v 4 J X.B @ / ) < s W c ",
"N & J ^ M & ] ^ , t @.( $ r ) N $ J ^ M $ ] ^ : t ! O.q t W b # J W v @ _ ~ > t X.! $ 0 ! M 4 K ! B @ ! ^ < t ) ( 3 r ^ M # J ~ "
};
